<svg width="13" height="10" viewBox="0 0 13 10" fill="none" xmlns="http://www.w3.org/2000/svg">
<path d="M11.7375 0H0.782546C0.350332 0 0 0.350332 0 0.782546C0 1.21476 0.350332 1.56509 0.782546 1.56509H11.7375C12.1698 1.56509 12.5201 1.21476 12.5201 0.782546C12.5201 0.350332 12.1698 0 11.7375 0Z" fill="#252C32"/>
<path d="M11.7375 3.9126H0.782546C0.350332 3.9126 0 4.26293 0 4.69514C0 5.12736 0.350332 5.47769 0.782546 5.47769H11.7375C12.1698 5.47769 12.5201 5.12736 12.5201 4.69514C12.5201 4.26293 12.1698 3.9126 11.7375 3.9126Z" fill="#252C32"/>
<path d="M0.782546 7.82495H11.7375C12.1698 7.82495 12.5201 8.17528 12.5201 8.6075C12.5201 9.03971 12.1698 9.39004 11.7375 9.39004H0.782546C0.350332 9.39004 0 9.03971 0 8.6075C0 8.17528 0.350332 7.82495 0.782546 7.82495Z" fill="#252C32"/>
</svg>
