<svg width="21" height="21" viewBox="0 0 21 21" fill="none" xmlns="http://www.w3.org/2000/svg">
<path d="M18.66 5.2322C18.6134 4.94521 18.3713 4.73229 18.0827 4.73229H13.9997V3.54928C13.9997 1.59134 12.4306 0 10.5001 0C8.56959 0 7.00054 1.59134 7.00054 3.54928V4.73229H2.91755C2.62889 4.73229 2.38683 4.94521 2.34001 5.2322L0.00688566 20.3169C-0.0193568 20.4883 0.0302801 20.6629 0.140944 20.7931C0.252015 20.923 0.415367 21 0.584619 21H20.4158C20.5848 21 20.7482 20.923 20.859 20.7929C20.9699 20.6627 21.0193 20.4881 20.9931 20.3167L18.66 5.2322ZM8.16687 3.54906C8.16687 2.24473 9.21389 1.18278 10.5 1.18278C11.7861 1.18278 12.8331 2.24468 12.8331 3.54906V4.73207L8.16687 4.73228V3.54906ZM1.26659 19.8169L3.41599 5.91529H7.00018V7.09829C7.00018 7.42366 7.2626 7.6898 7.5834 7.6898C7.90419 7.6898 8.16661 7.42364 8.16661 7.09829V5.91529H12.8329V7.09829C12.8329 7.42366 13.0953 7.6898 13.4161 7.6898C13.7369 7.6898 13.9993 7.42364 13.9993 7.09829V5.91529H17.5835L19.7329 19.8169H1.26659Z" fill="#71717A"/>
</svg>
