<svg width="22" height="22" viewBox="0 0 22 22" fill="none" xmlns="http://www.w3.org/2000/svg">
<path d="M11 0C4.92468 0.0001705 0 4.92468 0 11C0.0001705 17.0753 4.92468 22 11 22C17.0753 21.9998 22 17.0753 22 11C21.9998 4.92468 17.0753 0 11 0ZM18.2766 18.2766C16.4132 20.1393 13.843 21.2904 11 21.2905C8.15742 21.2904 5.58687 20.1393 3.72341 18.2766C1.86075 16.4132 0.709631 13.843 0.709456 11C0.709627 8.15742 1.86075 5.58687 3.72341 3.72341C5.58678 1.86075 8.15702 0.709631 11 0.709456C13.8426 0.709627 16.4131 1.86075 18.2766 3.72341C20.1393 5.58678 21.2904 8.15702 21.2905 11C21.2904 13.8426 20.1393 16.4131 18.2766 18.2766Z" fill="#71717A"/>
<path d="M13.9412 5.69768C13.4503 5.17609 12.7503 4.84937 11.9776 4.84937C10.4877 4.84954 9.28046 6.05692 9.28011 7.54685V10.5047H7.22219C7.0261 10.5047 6.86719 10.6636 6.86719 10.8597C6.86719 11.0558 7.0261 11.2147 7.22219 11.2147H9.28011V12.5382L7.67101 15.6884C7.61474 15.7982 7.61985 15.9298 7.68448 16.0351C7.74876 16.1401 7.86386 16.2047 7.98714 16.2047H13.3553C13.5514 16.2047 13.71 16.0458 13.71 15.8501C13.71 15.654 13.5511 15.4954 13.3553 15.4954H8.56682L9.95103 12.7853C9.97643 12.7352 9.9899 12.6799 9.9899 12.624V11.2152H11.8347C12.0308 11.2152 12.1897 11.0563 12.1897 10.8602C12.1897 10.6641 12.0308 10.5052 11.8347 10.5052H9.9899V7.54737C9.99008 6.99728 10.2119 6.50263 10.5722 6.14186C10.933 5.78157 11.4278 5.5599 11.9777 5.55956C12.5493 5.55956 13.0611 5.79912 13.4248 6.18463C13.5592 6.32718 13.7838 6.334 13.9265 6.19947C14.0688 6.06477 14.0757 5.84037 13.9413 5.69766L13.9412 5.69768Z" fill="#71717A"/>
</svg>
