<svg width="23" height="21" viewBox="0 0 23 21" fill="none" xmlns="http://www.w3.org/2000/svg">
<path d="M11.499 21C11.4053 21 11.3113 20.9725 11.2302 20.9174C0.521438 13.6425 -0.34868 8.04894 0.0850792 5.36227C0.536692 2.56849 2.62784 0.780952 4.49981 0.248462C8.01417 -0.755569 10.5646 1.54313 11.4993 2.57857C12.4347 1.54326 14.988 -0.75691 18.5023 0.248808C20.3732 0.781255 22.4635 2.56914 22.9149 5.36305C23.3489 8.04985 22.4778 13.6437 11.768 20.9173C11.6869 20.9724 11.593 20.9999 11.4992 20.9999L11.499 21ZM6.25361 0.951392C5.78372 0.951392 5.28591 1.01611 4.76219 1.16582C3.18072 1.6156 1.4134 3.13451 1.02865 5.51441C0.633917 7.95573 1.48096 13.0605 11.4991 19.9453C21.5176 13.0614 22.3656 7.95668 21.9709 5.51528C21.5863 3.13516 19.8196 1.6159 18.2392 1.16625C14.4454 0.0814566 11.9915 3.45699 11.8888 3.60112C11.7993 3.72701 11.6537 3.8022 11.499 3.8022H11.498C11.3429 3.80186 11.1973 3.72667 11.1081 3.60011C11.0203 3.47625 9.18712 0.95163 6.25359 0.95163L6.25361 0.951392Z" fill="#71717A"/>
</svg>
