<svg width="18" height="22" viewBox="0 0 18 22" fill="none" xmlns="http://www.w3.org/2000/svg">
<path fill-rule="evenodd" clip-rule="evenodd" d="M18 19.6279C18 17.4712 17.1517 15.4034 15.6415 13.8784C14.1315 12.3538 12.0832 11.4971 9.94729 11.4971H8.05271C5.91692 11.4971 3.86882 12.3538 2.35848 13.8784C0.848348 15.4034 0 17.4712 0 19.6279V20.5655C0 21.3575 0.636129 22.0001 1.42102 22.0001H16.5788C17.3637 22.0001 17.9998 21.3575 17.9998 20.5655L18 19.6279ZM17.0525 19.6279V20.5655C17.0525 20.8294 16.8403 21.0438 16.579 21.0438H1.42118C1.15981 21.0438 0.947616 20.8294 0.947616 20.5655V19.6279C0.947616 17.7252 1.69605 15.9003 3.02839 14.5548C4.3609 13.2094 6.16844 12.4539 8.05271 12.4539H9.94729C11.8316 12.4539 13.6391 13.2094 14.9716 14.5548C16.304 15.9003 17.0524 17.7252 17.0524 19.6279H17.0525Z" fill="#71717A"/>
<path fill-rule="evenodd" clip-rule="evenodd" d="M9.00009 0C6.12444 0 3.78983 2.35734 3.78983 5.26081C3.78983 8.16427 6.12452 10.5216 9.00009 10.5216C11.8757 10.5216 14.2104 8.16427 14.2104 5.26081C14.2104 2.35734 11.8757 0 9.00009 0ZM9.00009 0.956481C11.3529 0.956481 13.2631 2.88531 13.2631 5.26089C13.2631 7.63647 11.3529 9.5653 9.00009 9.5653C6.64733 9.5653 4.73704 7.63647 4.73704 5.26089C4.73704 2.88531 6.64733 0.956481 9.00009 0.956481Z" fill="#71717A"/>
</svg>
