<svg width="21" height="21" viewBox="0 0 21 21" fill="none" xmlns="http://www.w3.org/2000/svg">
<path d="M10.5001 0.00049353C4.70431 0.00049353 0 4.7048 0 10.5006C0 16.2016 4.55031 20.8413 10.2149 20.9918C10.3086 21.0014 10.4043 21.0003 10.4998 21.0003C10.5952 21.0003 10.691 21.0002 10.7846 20.9918C16.4496 20.841 21 16.2011 21 10.5001C21 4.70431 16.2957 0 10.4999 0L10.5001 0.00049353ZM10.2237 0.579133V4.97426H6.59701C6.77954 4.40179 6.99464 3.86406 7.22726 3.38549C8.03623 1.72269 9.1044 0.723311 10.2237 0.579133ZM10.7763 0.579133C11.8956 0.723306 12.9637 1.72269 13.7727 3.38549C14.0055 3.86407 14.2206 4.40184 14.4029 4.97426H10.7763V0.579133ZM8.5225 0.751831C7.83324 1.30249 7.22879 2.12878 6.73497 3.14381C6.46667 3.69526 6.2377 4.31609 6.03549 4.97451H2.22744C3.66089 2.83216 5.90518 1.2796 8.52206 0.752078L8.5225 0.751831ZM12.4772 0.751831C15.0943 1.27935 17.3386 2.83191 18.7718 4.97426H14.9638C14.7616 4.31584 14.5326 3.69521 14.2643 3.14356C13.7705 2.12858 13.166 1.30249 12.4768 0.751585L12.4772 0.751831ZM1.89077 5.52685H5.87153C5.49761 6.93212 5.28021 8.53038 5.2584 10.2242H0.561044C0.608074 8.514 1.08664 6.91574 1.89077 5.52685ZM6.44148 5.52685H10.2235V10.2242H5.81098C5.83373 8.51439 6.05808 6.91673 6.44124 5.52685H6.44148ZM10.7763 5.52685H14.5583C14.9415 6.91673 15.166 8.51459 15.1886 10.2242H10.7761V5.52685H10.7763ZM15.1283 5.52685H19.109C19.9132 6.91574 20.3919 8.514 20.4388 10.2242H15.7414C15.7196 8.53038 15.5022 6.93212 15.1283 5.52685ZM0.560896 10.7769H5.25825C5.27984 12.4713 5.49726 14.0707 5.87138 15.4742H1.88194C1.08072 14.0863 0.606932 12.4846 0.560896 10.7769ZM5.81094 10.7769H10.2234V15.4742H6.44143C6.05807 14.0861 5.83353 12.4871 5.81118 10.7769H5.81094ZM10.7758 10.7769H15.1883C15.1659 12.4871 14.9414 14.0861 14.558 15.4742H10.776V10.7769H10.7758ZM15.7406 10.7769H20.438C20.3919 12.4846 19.9181 14.0865 19.1169 15.4742H15.1275C15.5016 14.0707 15.719 12.4713 15.7406 10.7769ZM2.2267 16.0269H6.03475C6.23694 16.6844 6.46592 17.2975 6.73423 17.8489C7.23151 18.8711 7.84365 19.7051 8.53888 20.258C5.91219 19.7334 3.66325 18.177 2.2265 16.0269H2.2267ZM6.59602 16.0269H10.2227V20.4307C9.10341 20.2854 8.03524 19.2699 7.22627 17.607C6.99344 17.1284 6.77834 16.5984 6.59602 16.0269ZM10.7753 16.0269H14.402C14.2196 16.5986 14.0043 17.1286 13.7717 17.607C12.9627 19.2698 11.8946 20.2852 10.7753 20.4307V16.0269ZM14.9632 16.0269H18.7713C17.335 18.177 15.0858 19.7334 12.4589 20.258C13.1541 19.7051 13.7663 18.8711 14.2635 17.8489C14.5318 17.2975 14.7608 16.6844 14.963 16.0269H14.9632Z" fill="#71717A"/>
</svg>
