<svg width="20" height="20" viewBox="0 0 20 20" fill="none" xmlns="http://www.w3.org/2000/svg">
<path fill-rule="evenodd" clip-rule="evenodd" d="M7.877 13.2063C4.033 13.2063 0.75 13.7873 0.75 16.1153C0.75 18.4433 4.013 19.0453 7.877 19.0453C11.722 19.0453 15.004 18.4633 15.004 16.1363C15.004 13.8093 11.742 13.2063 7.877 13.2063Z" stroke="white" stroke-width="1.5" stroke-linecap="round" stroke-linejoin="round"/>
<path fill-rule="evenodd" clip-rule="evenodd" d="M7.87953 9.886C10.4025 9.886 12.4475 7.841 12.4475 5.318C12.4475 2.795 10.4025 0.75 7.87953 0.75C5.35753 0.75 3.31253 2.795 3.31253 5.318C3.30353 7.832 5.33353 9.877 7.84853 9.886H7.87953Z" stroke="white" stroke-width="1.5" stroke-linecap="round" stroke-linejoin="round"/>
<path d="M17.2031 6.66919V10.6792" stroke="white" stroke-width="1.5" stroke-linecap="round" stroke-linejoin="round"/>
<path d="M19.2463 8.67407H15.1562" stroke="white" stroke-width="1.5" stroke-linecap="round" stroke-linejoin="round"/>
</svg>
