<svg width="32" height="32" viewBox="0 0 32 32" fill="none" xmlns="http://www.w3.org/2000/svg">
<path fill-rule="evenodd" clip-rule="evenodd" d="M23.2546 8.31521C23.308 8.40844 23.4013 8.47503 23.5213 8.47503C26.7213 8.47503 29.3346 11.0855 29.3346 14.2819V22.1931C29.3346 25.3896 26.7213 28 23.5213 28H8.4813C5.26797 28 2.66797 25.3896 2.66797 22.1931V14.2819C2.66797 11.0855 5.26797 8.47503 8.4813 8.47503C8.58797 8.47503 8.69464 8.42175 8.73464 8.31521L8.81464 8.15538C8.8606 8.05863 8.90778 7.95926 8.95567 7.85838C9.29677 7.13992 9.67413 6.34506 9.90797 5.87791C10.5213 4.67925 11.5613 4.01332 12.8546 4H19.1346C20.428 4.01332 21.4813 4.67925 22.0946 5.87791C22.3046 6.29744 22.6246 6.97322 22.9329 7.62455C22.9966 7.75896 23.0597 7.89233 23.1213 8.0222L23.2546 8.31521ZM22.2813 13.4295C22.2813 14.0954 22.8146 14.6282 23.4813 14.6282C24.148 14.6282 24.6946 14.0954 24.6946 13.4295C24.6946 12.7636 24.148 12.2175 23.4813 12.2175C22.8146 12.2175 22.2813 12.7636 22.2813 13.4295ZM13.6946 15.4939C14.3213 14.8679 15.1346 14.535 16.0013 14.535C16.868 14.535 17.6813 14.8679 18.2946 15.4806C18.908 16.0932 19.2413 16.9057 19.2413 17.7714C19.228 19.556 17.788 21.0078 16.0013 21.0078C15.1346 21.0078 14.3213 20.6748 13.708 20.0622C13.0946 19.4495 12.7613 18.6371 12.7613 17.7714V17.758C12.748 16.919 13.0813 16.1065 13.6946 15.4939ZM19.6946 21.4739C18.748 22.4195 17.4413 23.0056 16.0013 23.0056C14.6013 23.0056 13.2946 22.4595 12.2946 21.4739C11.308 20.475 10.7613 19.1698 10.7613 17.7714C10.748 16.3862 11.2946 15.081 12.2813 14.0821C13.2813 13.0832 14.6013 12.5372 16.0013 12.5372C17.4013 12.5372 18.7213 13.0832 19.708 14.0688C20.6946 15.0677 21.2413 16.3862 21.2413 17.7714C21.228 19.2231 20.6413 20.5283 19.6946 21.4739Z" fill="white"/>
</svg>
