<svg width="24" height="24" viewBox="0 0 24 24" fill="none" xmlns="http://www.w3.org/2000/svg">
<path fill-rule="evenodd" clip-rule="evenodd" d="M19.0714 19.0699C16.0152 22.1263 11.4898 22.7867 7.78642 21.074C7.23971 20.8539 6.79148 20.676 6.36537 20.676C5.17849 20.683 3.70117 21.8339 2.93336 21.067C2.16555 20.2991 3.31726 18.8206 3.31726 17.6266C3.31726 17.2004 3.14642 16.7602 2.92632 16.2124C1.21283 12.5096 1.87411 7.98269 4.93026 4.92721C8.8316 1.02443 15.17 1.02443 19.0714 4.9262C22.9797 8.83501 22.9727 15.1681 19.0714 19.0699Z" stroke="#078C61" stroke-width="1.5" stroke-linecap="round" stroke-linejoin="round"/>
<path d="M15.9389 11.6631C15.5246 11.6631 15.1889 11.9989 15.1889 12.4131C15.1889 12.8273 15.5246 13.1631 15.9389 13.1631H15.9479C16.3621 13.1631 16.6979 12.8273 16.6979 12.4131C16.6979 11.9989 16.3621 11.6631 15.9479 11.6631H15.9389Z" stroke="#078C61" stroke-width="1.5" stroke-linecap="round" stroke-linejoin="round"/>
<path d="M11.931 11.6631C11.5168 11.6631 11.181 11.9989 11.181 12.4131C11.181 12.8273 11.5168 13.1631 11.931 13.1631H11.94C12.3543 13.1631 12.69 12.8273 12.69 12.4131C12.69 11.9989 12.3543 11.6631 11.94 11.6631H11.931Z" stroke="#078C61" stroke-width="1.5" stroke-linecap="round" stroke-linejoin="round"/>
<path d="M7.92128 11.6631C7.50707 11.6631 7.17128 11.9989 7.17128 12.4131C7.17128 12.8273 7.50707 13.1631 7.92128 13.1631H7.93028C8.34449 13.1631 8.68028 12.8273 8.68028 12.4131C8.68028 11.9989 8.34449 11.6631 7.93028 11.6631H7.92128Z" stroke="#078C61" stroke-width="1.5" stroke-linecap="round" stroke-linejoin="round"/>
</svg>
