<svg style="fill: #a4a4a4;" xmlns="http://www.w3.org/2000/svg" xmlns:xlink="http://www.w3.org/1999/xlink" version="1.1" x="0px" y="0px" viewBox="0 0 100 125" enable-background="new 0 0 100 100" xml:space="preserve"><path fill-rule="evenodd" clip-rule="evenodd" d="M16.5,83.5c1,1,2,1.5,3.5,1.5c1.5,0,2.5-0.5,3.5-1.5L50,57l26.5,26.5  c1,1,2.5,1.5,3.5,1.5s2.5-0.5,3.5-1.5c2-2,2-5,0-7L57,50l26.5-26.5c2-2,2-5,0-7c-2-2-5-2-7,0L50,43L23.5,16.5c-2-2-5-2-7,0s-2,5,0,7  L43,50L16.5,76.5C14.5,78.5,14.5,81.5,16.5,83.5L16.5,83.5z"/></svg>