<svg width="20" height="22" viewBox="0 0 20 22" fill="none" xmlns="http://www.w3.org/2000/svg">
<path fill-rule="evenodd" clip-rule="evenodd" d="M18.741 6.73445L18.1186 5.65436C17.592 4.74044 16.425 4.42516 15.5099 4.94956V4.94956C15.0742 5.20618 14.5544 5.27899 14.065 5.15193C13.5757 5.02486 13.1569 4.70836 12.9012 4.27221C12.7366 3.99499 12.6482 3.67923 12.6449 3.35688V3.35688C12.6597 2.84006 12.4647 2.33924 12.1044 1.96851C11.744 1.59778 11.2489 1.3887 10.7318 1.38892H9.47783C8.97129 1.38891 8.48564 1.59075 8.12833 1.94978C7.77101 2.30882 7.5715 2.79543 7.57394 3.30196V3.30196C7.55892 4.34777 6.70681 5.18765 5.66089 5.18754C5.33854 5.1842 5.02278 5.09578 4.74556 4.93125V4.93125C3.83039 4.40685 2.66344 4.72213 2.13686 5.63606L1.46867 6.73445C0.942736 7.64723 1.25373 8.81345 2.16432 9.34315V9.34315C2.75623 9.68488 3.12086 10.3164 3.12086 10.9999C3.12086 11.6834 2.75623 12.3149 2.16432 12.6567V12.6567C1.25488 13.1828 0.943553 14.3462 1.46867 15.2562V15.2562L2.10025 16.3454C2.34697 16.7906 2.76093 17.1191 3.25052 17.2583C3.74011 17.3974 4.26497 17.3357 4.70895 17.0869V17.0869C5.14541 16.8322 5.66551 16.7624 6.15367 16.893C6.64182 17.0237 7.05756 17.3439 7.30849 17.7825C7.47302 18.0597 7.56143 18.3755 7.56478 18.6978V18.6978C7.56478 19.7544 8.42128 20.6109 9.47783 20.6109H10.7318C11.7848 20.6109 12.6398 19.76 12.6449 18.707V18.707C12.6424 18.1989 12.8432 17.7109 13.2025 17.3516C13.5618 16.9923 14.0498 16.7915 14.5579 16.794C14.8795 16.8026 15.194 16.8906 15.4732 17.0502V17.0502C16.386 17.5762 17.5522 17.2652 18.0819 16.3546V16.3546L18.741 15.2562C18.9961 14.8183 19.0661 14.2968 18.9355 13.8072C18.805 13.3176 18.4846 12.9002 18.0453 12.6475V12.6475C17.6061 12.3948 17.2857 11.9774 17.1551 11.4878C17.0246 10.9981 17.0946 10.4767 17.3497 10.0388C17.5156 9.74918 17.7557 9.50904 18.0453 9.34315V9.34315C18.9505 8.81373 19.2607 7.65433 18.741 6.74361V6.74361V6.73445Z" stroke="#078C61" stroke-width="1.5" stroke-linecap="round" stroke-linejoin="round"/>
<circle cx="10.1088" cy="10.9999" r="2.63616" stroke="#078C61" stroke-width="1.5" stroke-linecap="round" stroke-linejoin="round"/>
</svg>
