<svg width="24" height="24" viewBox="0 0 24 24" fill="none" xmlns="http://www.w3.org/2000/svg">
<path d="M8.73153 9.83594C8.71165 9.64986 8.62784 9.50497 8.48011 9.40128C8.33381 9.29759 8.14347 9.24574 7.90909 9.24574C7.74432 9.24574 7.60298 9.2706 7.48509 9.32031C7.36719 9.37003 7.27699 9.4375 7.21449 9.52273C7.15199 9.60795 7.12003 9.70526 7.11861 9.81463C7.11861 9.90554 7.1392 9.98437 7.1804 10.0511C7.22301 10.1179 7.28054 10.1747 7.35298 10.2216C7.42543 10.267 7.50568 10.3054 7.59375 10.3366C7.68182 10.3679 7.7706 10.3942 7.86009 10.4155L8.26918 10.5178C8.43395 10.5561 8.59233 10.608 8.74432 10.6733C8.89773 10.7386 9.0348 10.821 9.15554 10.9205C9.2777 11.0199 9.37429 11.1399 9.44531 11.2805C9.51634 11.4212 9.55185 11.5859 9.55185 11.7749C9.55185 12.0305 9.48651 12.2557 9.35582 12.4503C9.22514 12.6435 9.03622 12.7947 8.78906 12.9041C8.54332 13.0121 8.24574 13.0661 7.89631 13.0661C7.55682 13.0661 7.26207 13.0135 7.01207 12.9084C6.76349 12.8033 6.56889 12.6499 6.42827 12.4482C6.28906 12.2464 6.21378 12.0007 6.20241 11.7109H6.98011C6.99148 11.8629 7.03835 11.9893 7.12074 12.0902C7.20313 12.1911 7.31037 12.2663 7.44247 12.3161C7.57599 12.3658 7.72514 12.3906 7.88991 12.3906C8.06179 12.3906 8.21236 12.3651 8.34162 12.3139C8.4723 12.2614 8.57457 12.1889 8.64844 12.0966C8.7223 12.0028 8.75994 11.8935 8.76136 11.7685C8.75994 11.6548 8.72656 11.5611 8.66122 11.4872C8.59588 11.4119 8.50426 11.3494 8.38636 11.2997C8.26989 11.2486 8.13352 11.2031 7.97727 11.1634L7.48082 11.0355C7.12145 10.9432 6.83736 10.8033 6.62855 10.6158C6.42116 10.4268 6.31747 10.1761 6.31747 9.86364C6.31747 9.60653 6.38707 9.38139 6.52628 9.18821C6.6669 8.99503 6.85795 8.84517 7.09943 8.73864C7.34091 8.63068 7.61435 8.5767 7.91974 8.5767C8.2294 8.5767 8.50071 8.63068 8.73366 8.73864C8.96804 8.84517 9.15199 8.99361 9.28551 9.18395C9.41903 9.37287 9.48793 9.5902 9.49219 9.83594H8.73153ZM10.7466 13H9.90288L11.4391 8.63636H12.415L13.9533 13H13.1096L11.9441 9.53125H11.91L10.7466 13ZM10.7743 11.2891H13.0755V11.924H10.7743V11.2891ZM14.5281 13V8.63636H16.1644C16.4996 8.63636 16.7809 8.6946 17.0082 8.81108C17.2369 8.92756 17.4094 9.09091 17.5259 9.30114C17.6438 9.50994 17.7028 9.75355 17.7028 10.032C17.7028 10.3118 17.6431 10.5547 17.5238 10.7607C17.4059 10.9652 17.2319 11.1236 17.0018 11.2358C16.7717 11.3466 16.489 11.402 16.1538 11.402H14.9883V10.7457H16.0472C16.2433 10.7457 16.4038 10.7187 16.5288 10.6648C16.6538 10.6094 16.7461 10.5291 16.8058 10.424C16.8668 10.3175 16.8974 10.1868 16.8974 10.032C16.8974 9.87713 16.8668 9.74503 16.8058 9.63565C16.7447 9.52486 16.6516 9.44105 16.5266 9.38423C16.4016 9.32599 16.2404 9.29688 16.043 9.29688H15.3185V13H14.5281ZM16.7823 11.0227L17.8626 13H16.9805L15.9194 11.0227H16.7823Z" fill="#078C61"/>
<path d="M9.15722 20.7714V17.7047C9.1572 16.9246 9.79312 16.2908 10.581 16.2856H13.4671C14.2587 16.2856 14.9005 16.9209 14.9005 17.7047V17.7047V20.7809C14.9003 21.4432 15.4343 21.9845 16.103 22H18.0271C19.9451 22 21.5 20.4607 21.5 18.5618V18.5618V9.83784C21.4898 9.09083 21.1355 8.38935 20.538 7.93303L13.9577 2.6853C12.8049 1.77157 11.1662 1.77157 10.0134 2.6853L3.46203 7.94256C2.86226 8.39702 2.50739 9.09967 2.5 9.84736V18.5618C2.5 20.4607 4.05488 22 5.97291 22H7.89696C8.58235 22 9.13797 21.4499 9.13797 20.7714V20.7714" stroke="#078C61" stroke-width="1.5" stroke-linecap="round" stroke-linejoin="round"/>
</svg>
