<svg width="22" height="16" viewBox="0 0 22 16" fill="none" xmlns="http://www.w3.org/2000/svg">
<path d="M19.5557 0H2.4445C1.7964 0.000719086 1.17504 0.260296 0.716766 0.721779C0.258488 1.18326 0.000714091 1.80896 0 2.4616V13.5387C0.000714206 14.1913 0.258496 14.8169 0.716781 15.2784C1.17507 15.7398 1.79642 15.9993 2.4445 16H19.5557C20.2038 15.9994 20.8252 15.7399 21.2834 15.2784C21.7417 14.817 21.9994 14.1913 22 13.5387V2.4616C21.9994 1.80898 21.7416 1.18328 21.2834 0.721794C20.8252 0.260304 20.2038 0.000719202 19.5557 0ZM20.7776 13.5387C20.7772 13.8649 20.6484 14.1778 20.4193 14.4085C20.1902 14.6393 19.8795 14.7691 19.5555 14.7696H2.4445C2.12049 14.769 1.8099 14.6392 1.58081 14.4085C1.35172 14.1777 1.22283 13.8649 1.22237 13.5387V2.46184C1.22276 2.13555 1.35164 1.82272 1.58074 1.59197C1.80984 1.36122 2.12047 1.23138 2.4445 1.23092H19.5557C19.8797 1.23138 20.1903 1.36119 20.4193 1.5919C20.6484 1.8226 20.7772 2.13536 20.7776 2.4616V13.5387Z" fill="#078C61"/>
<path d="M18.5713 8.49477C19.2653 7.92111 19.7149 7.07731 19.7149 6.12489C19.7149 5.29612 19.3765 4.50129 18.7742 3.91526C18.1719 3.32923 17.355 3 16.5032 3C15.6514 3 14.8345 3.32923 14.2322 3.91526C13.6299 4.50129 13.2916 5.29612 13.2916 6.12489C13.2916 7.07806 13.7409 7.92111 14.4349 8.49477C12.9941 9.22495 12.0067 10.6888 12.0067 12.3749C12.0067 12.5407 12.0744 12.6997 12.1949 12.8169C12.3153 12.9341 12.4787 13 12.6491 13C12.8195 13 12.9829 12.9341 13.1034 12.8169C13.2239 12.6997 13.2916 12.5407 13.2916 12.3749C13.2878 11.9622 13.368 11.5528 13.5277 11.1704C13.6874 10.788 13.9234 10.4402 14.222 10.147C14.5206 9.85387 14.876 9.62116 15.2676 9.46236C15.6591 9.30355 16.0791 9.22178 16.5033 9.22178C16.9276 9.22178 17.3476 9.30355 17.7391 9.46236C18.1307 9.62116 18.486 9.85387 18.7847 10.147C19.0833 10.4402 19.3193 10.788 19.479 11.1704C19.6387 11.5528 19.7189 11.9622 19.7151 12.3749C19.7151 12.5407 19.7828 12.6997 19.9033 12.8169C20.0238 12.9341 20.1872 13 20.3576 13C20.528 13 20.6914 12.9341 20.8118 12.8169C20.9323 12.6997 21 12.5407 21 12.3749C21 10.6888 20.0124 9.22495 18.5721 8.49477H18.5713ZM14.5754 6.12489C14.5754 5.75404 14.6884 5.39152 14.9002 5.08318C15.1119 4.77483 15.4129 4.53451 15.7651 4.39261C16.1172 4.2507 16.5047 4.21358 16.8785 4.28595C17.2523 4.35832 17.5957 4.53692 17.8652 4.79916C18.1347 5.06141 18.3182 5.39553 18.3925 5.75925C18.4668 6.12298 18.4286 6.49999 18.2827 6.84259C18.1368 7.18519 17.8898 7.47801 17.5729 7.684C17.2559 7.89 16.8833 7.99992 16.5022 7.99987C16.2491 7.99987 15.9986 7.95138 15.7648 7.85714C15.531 7.76292 15.3186 7.6248 15.1396 7.45069C14.9607 7.27658 14.8188 7.06988 14.722 6.8424C14.6252 6.61492 14.5754 6.3711 14.5754 6.12489ZM11.3635 4.24966H3.6553C3.48492 4.24966 3.32151 4.31551 3.20103 4.43274C3.08055 4.54996 3.01287 4.70895 3.01287 4.87473C3.01287 5.04051 3.08055 5.19951 3.20103 5.31673C3.32151 5.43396 3.48492 5.49981 3.6553 5.49981H11.3635C11.5339 5.49981 11.6973 5.43396 11.8178 5.31673C11.9382 5.19951 12.0059 5.04051 12.0059 4.87473C12.0059 4.70895 11.9382 4.54996 11.8178 4.43274C11.6973 4.31551 11.5339 4.24966 11.3635 4.24966ZM10.721 7.3748H3.6553C3.56987 7.37313 3.48496 7.38806 3.40553 7.41872C3.3261 7.44938 3.25376 7.49515 3.19274 7.55335C3.13171 7.61155 3.08324 7.681 3.05014 7.75765C3.01705 7.8343 3 7.91661 3 7.99975C3 8.08289 3.01705 8.16519 3.05014 8.24185C3.08324 8.3185 3.13171 8.38795 3.19274 8.44615C3.25376 8.50435 3.3261 8.55012 3.40553 8.58078C3.48496 8.61143 3.56987 8.62637 3.6553 8.6247H10.721C10.8065 8.62637 10.8914 8.61143 10.9708 8.58078C11.0502 8.55012 11.1226 8.50435 11.1836 8.44615C11.2446 8.38795 11.2931 8.3185 11.3262 8.24185C11.3593 8.16519 11.3764 8.08289 11.3764 7.99975C11.3764 7.91661 11.3593 7.8343 11.3262 7.75765C11.2931 7.681 11.2446 7.61155 11.1836 7.55335C11.1226 7.49515 11.0502 7.44938 10.9708 7.41872C10.8914 7.38806 10.8065 7.37313 10.721 7.3748ZM8.794 10.5002H3.6553C3.48492 10.5002 3.32151 10.566 3.20103 10.6833C3.08055 10.8005 3.01287 10.9595 3.01287 11.1253C3.01287 11.291 3.08055 11.45 3.20103 11.5673C3.32151 11.6845 3.48492 11.7503 3.6553 11.7503H8.794C8.96439 11.7503 9.12779 11.6845 9.24827 11.5673C9.36875 11.45 9.43644 11.291 9.43644 11.1253C9.43644 10.9595 9.36875 10.8005 9.24827 10.6833C9.12779 10.566 8.96439 10.5002 8.794 10.5002Z" fill="#078C61"/>
</svg>
