<svg width="21" height="20" viewBox="0 0 21 20" fill="none" xmlns="http://www.w3.org/2000/svg">
<path fill-rule="evenodd" clip-rule="evenodd" d="M10.25 0.75C15.358 0.75 19.5 4.891 19.5 10C19.5 15.108 15.358 19.25 10.25 19.25C5.141 19.25 1 15.108 1 10C1 4.891 5.141 0.75 10.25 0.75Z" stroke="#078C61" stroke-width="1.5" stroke-linecap="round" stroke-linejoin="round"/>
<path d="M8.9897 12.4347V12.3239C8.99254 11.8097 9.04084 11.4006 9.13459 11.0966C9.23118 10.7926 9.36754 10.5483 9.54368 10.3636C9.71982 10.1761 9.9343 10.0043 10.1871 9.84801C10.3604 9.74006 10.5153 9.62216 10.6516 9.49432C10.7908 9.36364 10.9002 9.21875 10.9798 9.05966C11.0593 8.89773 11.0991 8.71733 11.0991 8.51847C11.0991 8.29403 11.0465 8.09943 10.9414 7.93466C10.8363 7.76989 10.6942 7.64205 10.5153 7.55114C10.3391 7.46023 10.1417 7.41477 9.92294 7.41477C9.72124 7.41477 9.52947 7.45881 9.34766 7.54688C9.16868 7.6321 9.01953 7.76278 8.90021 7.93892C8.78374 8.11222 8.71839 8.33239 8.70419 8.59943H7.18714C7.20135 8.05966 7.33203 7.60795 7.57919 7.24432C7.82919 6.88068 8.15874 6.60795 8.56783 6.42614C8.97976 6.24432 9.4343 6.15341 9.93146 6.15341C10.4741 6.15341 10.9513 6.24858 11.3633 6.43892C11.7781 6.62926 12.1005 6.90057 12.3306 7.25284C12.5636 7.60227 12.68 8.01705 12.68 8.49716C12.68 8.82102 12.6275 9.1108 12.5224 9.36648C12.4201 9.62216 12.2738 9.84943 12.0835 10.0483C11.8931 10.2472 11.6673 10.4247 11.4059 10.581C11.1758 10.723 10.9869 10.8707 10.8391 11.0241C10.6942 11.1776 10.5863 11.358 10.5153 11.5653C10.4471 11.7699 10.4116 12.0227 10.4087 12.3239V12.4347H8.9897ZM9.73118 15.0938C9.4755 15.0938 9.25533 15.0028 9.07067 14.821C8.88601 14.6392 8.79368 14.4176 8.79368 14.1562C8.79368 13.9006 8.88601 13.6818 9.07067 13.5C9.25533 13.3182 9.4755 13.2273 9.73118 13.2273C9.98402 13.2273 10.2028 13.3182 10.3874 13.5C10.5749 13.6818 10.6687 13.9006 10.6687 14.1562C10.6687 14.3295 10.6246 14.4872 10.5366 14.6293C10.4513 14.7713 10.3377 14.8849 10.1957 14.9702C10.0565 15.0526 9.90163 15.0938 9.73118 15.0938Z" fill="#078C61"/>
</svg>
