<svg width="40" height="40" viewBox="0 0 40 40" fill="none" xmlns="http://www.w3.org/2000/svg">
<path d="M20.0931 5L12.5801 8.51217L19.5514 12.1053L27.1064 8.53635L20.0931 5Z" stroke="#078C61" stroke-width="2" stroke-linecap="round" stroke-linejoin="round"/>
<path d="M12.5131 18.2634L5 21.7756L11.9713 25.3687L19.5263 21.7998L12.5131 18.2634Z" stroke="#078C61" stroke-width="2" stroke-linecap="round" stroke-linejoin="round"/>
<path d="M27.0546 17.9475L19.5254 21.7318L26.4967 25.3686L34.0517 21.7562L27.0546 17.9475Z" stroke="#078C61" stroke-width="2" stroke-linecap="round" stroke-linejoin="round"/>
<path d="M12.5801 8.47388V18.1916L19.5274 21.737L19.5114 12.0354L12.5801 8.47388Z" stroke="#078C61" stroke-width="2" stroke-linecap="round" stroke-linejoin="round"/>
<path d="M5 21.7366V31.4543L11.9474 34.9997L11.9314 25.2981L5 21.7366Z" stroke="#078C61" stroke-width="2" stroke-linecap="round" stroke-linejoin="round"/>
<path d="M19.5254 21.7366V31.4543L26.4728 34.9997L26.4567 25.2981L19.5254 21.7366Z" stroke="#078C61" stroke-width="2" stroke-linecap="round" stroke-linejoin="round"/>
<path d="M27.1074 8.47388V17.973L19.5285 21.737L19.5447 12.0118L27.1074 8.47388Z" stroke="#078C61" stroke-width="2" stroke-linecap="round" stroke-linejoin="round"/>
<path d="M19.5254 21.7366V31.2356L11.9464 34.9997L11.9627 25.2745L19.5254 21.7366Z" stroke="#078C61" stroke-width="2" stroke-linecap="round" stroke-linejoin="round"/>
<path d="M34.0527 21.7366V31.2356L26.4738 34.9997L26.49 25.2745L34.0527 21.7366Z" stroke="#078C61" stroke-width="2" stroke-linecap="round" stroke-linejoin="round"/>
</svg>
