<svg width="24" height="24" viewBox="0 0 24 24" fill="none" xmlns="http://www.w3.org/2000/svg">
<path d="M12.0567 3L7.54883 5.1073L11.7316 7.26316L16.2646 5.12181L12.0567 3Z" stroke="#078C61" stroke-linecap="round" stroke-linejoin="round"/>
<path d="M7.50783 10.958L3 13.0653L7.18277 15.2212L11.7158 13.0798L7.50783 10.958Z" stroke="#078C61" stroke-linecap="round" stroke-linejoin="round"/>
<path d="M16.2323 10.7686L11.7148 13.0391L15.8976 15.2212L20.4306 13.0538L16.2323 10.7686Z" stroke="#078C61" stroke-linecap="round" stroke-linejoin="round"/>
<path d="M7.54883 5.08423V10.9149L11.7172 13.0421L11.7076 7.22116L7.54883 5.08423Z" stroke="#078C61" stroke-linecap="round" stroke-linejoin="round"/>
<path d="M3 13.042V18.8726L7.16842 20.9999L7.15882 15.1789L3 13.042Z" stroke="#078C61" stroke-linecap="round" stroke-linejoin="round"/>
<path d="M11.7148 13.042V18.8726L15.8833 20.9999L15.8737 15.1789L11.7148 13.042Z" stroke="#078C61" stroke-linecap="round" stroke-linejoin="round"/>
<path d="M16.2637 5.08423V10.7837L11.7163 13.0421L11.726 7.20698L16.2637 5.08423Z" stroke="#078C61" stroke-linecap="round" stroke-linejoin="round"/>
<path d="M11.7148 13.042V18.7414L7.16748 20.9999L7.17721 15.1647L11.7148 13.042Z" stroke="#078C61" stroke-linecap="round" stroke-linejoin="round"/>
<path d="M20.4316 13.042V18.7414L15.8843 20.9999L15.894 15.1647L20.4316 13.042Z" stroke="#078C61" stroke-linecap="round" stroke-linejoin="round"/>
</svg>
