<svg width="19" height="19" viewBox="0 0 19 19" fill="none" xmlns="http://www.w3.org/2000/svg">
<g clip-path="url(#clip0_130_5717)">
<path d="M14.1494 2.69897C13.575 2.69897 13.035 2.92266 12.6288 3.32881C11.7904 4.16725 11.7904 5.53148 12.6288 6.36992C13.035 6.77608 13.575 6.99976 14.1493 6.99976C14.7237 6.99976 15.2637 6.77608 15.6699 6.36992C16.5083 5.53148 16.5083 4.16725 15.6699 3.32881C15.2638 2.92266 14.7237 2.69897 14.1494 2.69897ZM14.8389 5.53889C14.6547 5.72308 14.4098 5.82454 14.1493 5.82454C13.8888 5.82454 13.644 5.72308 13.4598 5.53892C13.0795 5.1587 13.0795 4.54003 13.4598 4.15981C13.644 3.97561 13.8888 3.87419 14.1493 3.87419C14.4098 3.87419 14.6547 3.97561 14.8389 4.15981C15.2191 4.54003 15.2191 5.15866 14.8389 5.53889Z" fill="#078C61"/>
<path d="M17.3137 1.68589C16.2266 0.598734 14.7812 0 13.2437 0C11.7062 0 10.2608 0.598734 9.17365 1.68589C7.51949 3.34004 7.03903 5.80616 7.91754 7.94188L0.0103699 15.8491L0.00390625 18.9935L5.66696 19V16.8172H7.84914V14.635H10.0313V12.1086L11.0582 11.0817C11.7482 11.3639 12.4958 11.5117 13.244 11.5117C14.7814 11.5117 16.2267 10.9131 17.3137 9.82599C19.558 7.58175 19.558 3.93012 17.3137 1.68589ZM16.4828 8.99499C15.6177 9.86007 14.4675 10.3365 13.244 10.3365C12.5337 10.3365 11.8245 10.1694 11.1931 9.85337L10.8143 9.66369L8.85611 11.6218V13.4598H6.67393V15.6419H4.49174V17.8235L1.18155 17.8197L1.18461 16.337L9.33599 8.18538L9.14631 7.80649C8.26207 6.04026 8.607 3.91453 10.0046 2.51688C10.8698 1.65169 12.0201 1.17522 13.2437 1.17522C14.4673 1.17522 15.6176 1.65169 16.4828 2.51688C18.2688 4.3029 18.2688 7.20897 16.4828 8.99499Z" fill="#078C61"/>
</g>
<defs>
<clipPath id="clip0_130_5717">
<rect width="19" height="19" fill="white"/>
</clipPath>
</defs>
</svg>