<svg width="27" height="20" viewBox="0 0 27 20" fill="none" xmlns="http://www.w3.org/2000/svg">
<g clip-path="url(#clip0_105_6413)">
<path fill-rule="evenodd" clip-rule="evenodd" d="M13.2659 0.00270854C21.209 -4.62846e-05 24.6053 0.00821818 24.7705 0.0302567C24.8998 0.0467857 25.1035 0.0963724 25.2246 0.14045C25.3457 0.187282 25.5191 0.269926 25.6099 0.325023C25.7007 0.380119 25.8466 0.495822 25.9374 0.578466C26.0255 0.661111 26.1521 0.804361 26.2182 0.895271C26.2815 0.98618 26.3723 1.14045 26.4163 1.23962C26.4604 1.3388 26.5209 1.49858 26.5484 1.59775C26.598 1.76855 26.6007 1.99444 26.6062 6.93384C26.6145 11.3884 26.609 12.0936 26.576 12.0854C26.5539 12.0826 26.4328 11.9559 26.3062 11.8044C26.1796 11.6556 25.9897 11.4573 25.8851 11.3691C25.7778 11.2809 25.6044 11.1487 25.3072 10.9476L25.2934 6.5399C25.2796 2.35533 25.2769 2.12943 25.2301 2.01097C25.2026 1.9421 25.1448 1.83742 25.1035 1.77681C25.0595 1.71621 24.9769 1.6253 24.9191 1.57296C24.8613 1.52061 24.7429 1.44623 24.509 1.33604H2.21542L2.03652 1.4242C1.92643 1.47654 1.80533 1.56469 1.72551 1.65009C1.65395 1.72723 1.55487 1.87323 1.41725 2.16249L1.409 9.47654C1.40349 14.4517 1.409 16.8347 1.42826 16.9283C1.44477 17.0027 1.50808 17.1432 1.56863 17.2369C1.62918 17.3333 1.73652 17.4545 1.80808 17.5068C1.88239 17.5619 2.009 17.6336 2.24294 17.7272L17.7851 17.7548L18.0108 18.1129C18.1347 18.3085 18.3356 18.606 18.4622 18.7741C18.5861 18.9393 18.6796 19.0854 18.6741 19.0964C18.6659 19.1101 14.9173 19.1184 10.3402 19.1184C4.9567 19.1184 1.95395 19.1074 1.8301 19.0909C1.72276 19.0743 1.57413 19.0413 1.49982 19.0165C1.42276 18.9944 1.28789 18.9366 1.19707 18.8925C1.10624 18.8484 0.94661 18.7493 0.83927 18.6694C0.734683 18.5895 0.583307 18.4462 0.500738 18.3471C0.420922 18.2479 0.305325 18.0688 0.244775 17.9476C0.186977 17.8264 0.112665 17.6281 0.0823896 17.5068C0.0273438 17.2892 0.0273438 17.2011 0.0273438 9.55918C0.0273438 1.91731 0.0273438 1.82915 0.0823896 1.61152C0.112665 1.49031 0.186977 1.29196 0.244775 1.17075C0.305325 1.04954 0.420922 0.870477 0.503491 0.771304C0.583307 0.67213 0.731931 0.531634 0.828261 0.457254C0.924591 0.385629 1.08422 0.2837 1.18331 0.234113C1.28239 0.184527 1.43101 0.123921 1.51358 0.0991273C1.59615 0.0743339 1.73927 0.0440308 1.8301 0.0302567C1.92092 0.0164826 6.97689 0.00546336 13.2659 0.00270854ZM22.6099 11.0578C23.0585 11.0661 23.2127 11.0771 23.4494 11.1294C23.609 11.1625 23.8622 11.2341 24.0136 11.2865C24.165 11.3388 24.4072 11.4435 24.5503 11.5151C24.6934 11.5867 24.9301 11.7245 25.0732 11.8209C25.2466 11.9338 25.4558 12.1157 25.6952 12.3526C25.9539 12.6143 26.1108 12.7989 26.254 13.0165C26.364 13.1818 26.5099 13.4297 26.5732 13.5674C26.6393 13.7024 26.7218 13.9008 26.7604 14.0082C26.7989 14.1129 26.865 14.3498 26.9062 14.5316C26.9806 14.8457 26.9833 14.8953 26.9861 15.5096C26.9861 16.0826 26.9778 16.19 26.9228 16.4462C26.887 16.606 26.8209 16.8457 26.7769 16.9834C26.7328 17.1184 26.6338 17.3553 26.5622 17.5068C26.4879 17.6584 26.353 17.8925 26.2622 18.0303C26.1714 18.1652 26.0117 18.3774 25.9072 18.4986C25.7998 18.6198 25.6099 18.8071 25.4833 18.9146C25.3567 19.022 25.164 19.168 25.0595 19.2396C24.9521 19.3112 24.7484 19.4297 24.6053 19.5041C24.4622 19.5785 24.1952 19.6887 24.0136 19.7493C23.8319 19.8099 23.5842 19.8787 23.4631 19.9035C23.342 19.9283 23.0888 19.9614 22.8989 19.9779C22.6429 20 22.4668 20 22.2026 19.9779C22.0099 19.9586 21.7567 19.9256 21.6384 19.9008C21.5228 19.876 21.3026 19.8154 21.1512 19.7658C20.9998 19.719 20.7466 19.6115 20.587 19.5316C20.4273 19.4517 20.2044 19.325 20.0916 19.2506C19.9787 19.1735 19.8053 19.0468 19.7062 18.9669C19.6072 18.887 19.431 18.7217 19.3127 18.5977C19.1971 18.4738 19.0347 18.2837 18.9549 18.1735C18.8751 18.0661 18.7705 17.9118 18.7237 17.8374C18.6741 17.7603 18.5751 17.5702 18.498 17.4104C18.4237 17.2506 18.3273 17.022 18.2888 16.9008C18.2475 16.7796 18.1925 16.5757 18.1622 16.4462C18.1347 16.3168 18.0989 16.0633 18.0824 15.8815C18.0631 15.6969 18.0576 15.4297 18.0686 15.2754C18.0796 15.1239 18.1099 14.8622 18.1374 14.6969C18.165 14.5289 18.2338 14.2562 18.2888 14.0909C18.3411 13.9228 18.4457 13.6639 18.52 13.5124C18.5943 13.3608 18.7292 13.1239 18.82 12.9889C18.9108 12.8512 19.0705 12.6473 19.1695 12.5344C19.2714 12.4214 19.4475 12.2424 19.5631 12.1404C19.6787 12.0385 19.8851 11.8787 20.0228 11.7878C20.1576 11.6969 20.3806 11.5674 20.5182 11.5013C20.653 11.4352 20.8897 11.3388 21.0411 11.2865C21.1925 11.2341 21.4457 11.1652 21.6053 11.1349C21.765 11.1019 21.9301 11.0716 21.9769 11.0633C22.0209 11.0578 22.3072 11.055 22.6099 11.0578ZM23.5595 15.5592C22.7503 16.3498 22.0732 16.9972 22.0595 16.9972C22.0429 16.9972 21.6851 16.6501 21.2613 16.2286C20.5072 15.4738 20.4879 15.4573 20.3255 15.4132C20.2347 15.3856 20.1108 15.3719 20.0503 15.3774C19.9897 15.3856 19.8906 15.4132 19.8328 15.4435C19.7723 15.4738 19.6925 15.5454 19.6539 15.6033C19.6044 15.6776 19.5796 15.7603 19.5714 15.865C19.5659 15.9504 19.5741 16.0633 19.5934 16.1157C19.6154 16.1873 19.8934 16.482 20.6613 17.2506C21.5393 18.1267 21.7182 18.292 21.8117 18.3168C21.8723 18.3333 21.9879 18.3471 22.065 18.3471C22.1448 18.3471 22.2521 18.3305 22.2989 18.3085C22.3512 18.2892 23.1521 17.5399 24.1457 16.5812C25.665 15.1157 25.9072 14.8732 25.9457 14.7658C25.9787 14.6749 25.987 14.6005 25.9732 14.4903C25.9622 14.4077 25.9319 14.3002 25.9017 14.2562C25.8741 14.2093 25.7916 14.1432 25.7173 14.1046C25.6292 14.0606 25.5246 14.0358 25.4173 14.0303C25.2989 14.022 25.2191 14.0358 25.142 14.0716C25.0705 14.1046 24.5283 14.6115 23.5595 15.5592ZM8.73835 4.91731C8.93377 4.92282 9.18973 4.94761 9.30257 4.97241C9.41542 4.99444 9.58881 5.04128 9.68789 5.07433C9.78698 5.10464 9.96037 5.17351 10.0732 5.22585C10.1861 5.27819 10.3842 5.39114 10.5136 5.47654C10.6429 5.56194 10.8521 5.73274 10.9787 5.85395C11.1053 5.97516 11.2815 6.17351 11.3723 6.29472C11.4631 6.41593 11.609 6.66387 11.6998 6.84568C11.7879 7.0275 11.8897 7.28645 11.9283 7.4242C11.964 7.55918 12.0081 7.7961 12.0273 7.94761C12.0494 8.12392 12.0576 8.34706 12.0466 8.56745C12.0356 8.75753 12.0108 8.98618 11.9916 9.07709C11.9695 9.168 11.931 9.31676 11.8567 9.57296L12.7732 11.0881C13.2741 11.9201 13.7035 12.6446 13.7228 12.6914C13.7448 12.741 13.7613 12.8374 13.7613 12.9063C13.7613 12.9752 13.742 13.0771 13.7173 13.1322C13.6952 13.19 13.6484 13.2672 13.6154 13.3002C13.5824 13.336 13.5081 13.3911 13.4503 13.4187C13.3952 13.4462 13.3017 13.4793 13.2439 13.4876C13.1695 13.4986 12.9494 13.4545 12.4264 13.3195C12.0328 13.2203 11.7108 13.1432 11.7081 13.146C11.7053 13.1515 11.6283 13.4022 11.5347 13.7052C11.4411 14.0082 11.3338 14.303 11.2952 14.3581C11.2512 14.427 11.1796 14.4876 11.0833 14.5316C11.0062 14.5702 10.8962 14.6005 10.8439 14.6005C10.7916 14.6005 10.7007 14.5867 10.6429 14.573C10.5879 14.5564 10.4998 14.5096 10.4503 14.4655C10.3952 14.4187 10.0897 13.9146 8.90349 11.8429L8.35578 11.8595L7.63193 13.1267C7.22459 13.8429 6.87505 14.4242 6.82826 14.4628C6.78422 14.5013 6.70166 14.5482 6.64386 14.5647C6.58331 14.584 6.49799 14.6005 6.45395 14.6005C6.40716 14.6005 6.32459 14.5867 6.26679 14.573C6.21175 14.5564 6.11817 14.5041 6.06037 14.4545C6.00533 14.4022 5.94478 14.325 5.92551 14.2809C5.90624 14.2369 5.82092 13.9724 5.7356 13.6914C5.65028 13.4104 5.57046 13.1735 5.56221 13.1625C5.55395 13.1515 5.22918 13.2231 4.84386 13.3223C4.30716 13.4573 4.11175 13.4958 4.01817 13.4848C3.94936 13.4765 3.84202 13.438 3.77872 13.3939C3.71267 13.3526 3.6356 13.2809 3.60533 13.2369C3.57505 13.19 3.53927 13.0909 3.52276 13.0165C3.50074 12.9118 3.50349 12.8484 3.53101 12.7548C3.55303 12.6859 3.98514 11.9421 5.41633 9.57296L5.36404 9.39389C5.33377 9.29472 5.29248 9.11015 5.26771 8.98067C5.24569 8.85119 5.22918 8.57847 5.22918 8.37461C5.22918 8.17075 5.24569 7.89803 5.26771 7.76855C5.29248 7.63907 5.34753 7.41593 5.39432 7.27268C5.44111 7.12943 5.53744 6.89803 5.609 6.76304C5.68055 6.6253 5.7934 6.44072 5.85945 6.34982C5.92551 6.25891 6.04386 6.1129 6.12092 6.02199C6.19799 5.93384 6.36037 5.78232 6.48147 5.68315C6.60257 5.58673 6.78147 5.45725 6.88056 5.39665C6.97964 5.3388 7.16955 5.24238 7.30716 5.18453C7.44202 5.12392 7.65395 5.04954 7.77505 5.01924C7.89615 4.98618 8.08055 4.94761 8.18789 4.93384C8.29248 4.91731 8.54019 4.9118 8.73835 4.91731ZM7.96771 6.18453C7.84661 6.22309 7.65395 6.30849 7.54111 6.37185C7.40074 6.45174 7.25211 6.5702 7.07322 6.74927C6.9301 6.89252 6.77046 7.07984 6.72367 7.16249C6.67413 7.24513 6.60257 7.38838 6.56679 7.47929C6.52826 7.5702 6.47597 7.72447 6.44844 7.82364C6.41266 7.95588 6.3989 8.10464 6.3989 8.38838C6.3989 8.7107 6.40991 8.80987 6.46221 8.99444C6.49799 9.11566 6.58055 9.31951 6.64661 9.44899C6.71267 9.57847 6.84202 9.76855 6.9301 9.87599C7.01817 9.98067 7.17505 10.1349 7.28239 10.2121C7.38698 10.292 7.55762 10.3994 7.66496 10.4517C7.76955 10.5041 7.9512 10.573 8.06404 10.606C8.17689 10.6363 8.38056 10.6694 8.51817 10.6776C8.69432 10.6914 8.83744 10.6831 9.01358 10.6473C9.14845 10.6225 9.35487 10.5619 9.46771 10.5151C9.58055 10.4683 9.75945 10.3719 9.86679 10.3002C9.97138 10.2314 10.1475 10.0826 10.2521 9.96965C10.3595 9.8567 10.4971 9.67764 10.5576 9.57296C10.6209 9.46552 10.6952 9.31125 10.7283 9.2286C10.7613 9.14596 10.8081 8.9972 10.8328 8.89802C10.8686 8.7713 10.8796 8.61703 10.8796 8.37461C10.8796 8.11566 10.8631 7.97516 10.8191 7.80987C10.7888 7.68866 10.7062 7.47654 10.6402 7.34155C10.5741 7.20381 10.4448 7.00546 10.3567 6.90078C10.2659 6.79334 10.12 6.64734 10.0292 6.57571C9.9411 6.50133 9.74294 6.38287 9.59156 6.30849C9.43193 6.23136 9.23101 6.15698 9.10991 6.13219C8.99707 6.11015 8.84019 6.08811 8.76588 6.0826C8.68881 6.07709 8.52918 6.0826 8.40808 6.09086C8.28698 6.10188 8.08881 6.1432 7.96771 6.18453ZM5.71633 11.3443C5.50991 11.6887 5.34202 11.9724 5.34753 11.9752C5.35028 11.9779 5.46863 11.9504 5.60624 11.9146C5.74661 11.876 5.90349 11.8457 5.95028 11.8457C5.99982 11.8457 6.08514 11.8595 6.13744 11.876C6.18973 11.8953 6.27505 11.9366 6.32184 11.9724C6.37138 12.0082 6.43744 12.0854 6.46496 12.1404C6.49523 12.1983 6.53377 12.3057 6.55578 12.3801C6.57505 12.4545 6.59707 12.5179 6.60533 12.5206C6.61358 12.5261 6.74569 12.3085 6.89982 12.0358C7.0567 11.7658 7.18056 11.5399 7.17505 11.5344C7.1723 11.5289 7.08973 11.4793 6.99065 11.427C6.89156 11.3719 6.73193 11.2672 6.63285 11.1955C6.53377 11.1239 6.37138 10.9862 6.2723 10.8925L6.0934 10.719L5.71633 11.3443ZM10.6099 11.2176C10.5026 11.292 10.3457 11.3939 10.2576 11.4407C10.1695 11.4903 10.1007 11.5371 10.1007 11.5509C10.1007 11.5619 10.2273 11.7933 10.3815 12.0633L10.665 12.5564C10.7751 12.2066 10.8328 12.0909 10.8851 12.0385C10.9292 11.9889 11.0173 11.9256 11.0778 11.898C11.1384 11.8705 11.2347 11.8457 11.2897 11.8457C11.3475 11.8457 11.5072 11.876 11.6475 11.9146C11.7879 11.9531 11.9117 11.9834 11.9228 11.9834C11.9338 11.9834 11.7769 11.7079 11.5705 11.3719C11.3668 11.033 11.1906 10.752 11.1796 10.7438C11.1686 10.7355 11.0778 10.8099 10.9815 10.9063C10.8824 11.0027 10.7145 11.1432 10.6099 11.2176ZM15.4402 4.95863H23.2292V6.33604H15.4402V4.95863ZM15.4402 7.85119H23.2292V9.2286H15.4402V7.85119ZM15.4402 10.8264H17.7521V12.2038H15.4402V10.8264Z" fill="#078C61"/>
</g>
<defs>
<clipPath id="clip0_105_6413">
<rect width="27" height="20" fill="white"/>
</clipPath>
</defs>
</svg>