<?xml version="1.0" encoding="utf-8"?>
<!-- Generator: Adobe Illustrator 24.1.2, SVG Export Plug-In . SVG Version: 6.00 Build 0)  -->
<svg version="1.1" id="Layer_1" xmlns="http://www.w3.org/2000/svg" xmlns:xlink="http://www.w3.org/1999/xlink" x="0px" y="0px"
	 viewBox="0 0 390.1 81.1" style="enable-background:new 0 0 390.1 81.1;" xml:space="preserve">
<style type="text/css">
	@keyframes spin{0%{transform:rotate(0deg)}to{transform:rotate(360deg)}}
	.logo-st0{fill:#FBBC04;}
	.logo-st1{fill:#078C61;stroke:#F8F7FA;stroke-width:2.7665;}
	.logo-st2{fill:#FFFFFF;}
	.logo-st3{fill:#078C61;}
</style>
<g style="animation:spin 5s linear infinite;transform-box:fill-box;transform-origin:center">
	<path className="logo-st0" d="M33.1,5.5c4.3-7.4,14.9-7.4,19.2,0l25.2,43.7c4.3,7.4-1.1,16.6-9.6,16.6H17.4c-8.5,0-13.8-9.2-9.6-16.6
		L33.1,5.5z"/>
	<path className="logo-st1" d="M73,19c1.4-9.5-8.1-16.9-17-13.3L9.2,24.6C0.3,28.1-1.4,40,6.2,45.9l39.7,31.2c7.5,5.9,18.7,1.4,20-8L73,19z"/>
	<circle className="logo-st2" cx="43.6" cy="41.1" r="8.3"/>
</g>
<path className="logo-st3" d="M100.1,38.1V17.8h8c1.5,0,2.9,0.3,3.9,0.9c1.1,0.6,1.9,1.4,2.5,2.4c0.6,1,0.9,2.2,0.9,3.6
	c0,1.3-0.3,2.5-0.9,3.6c-0.6,1-1.4,1.8-2.5,2.4c-1.1,0.6-2.4,0.9-4,0.9h-5.1v-3.4h4.4c0.8,0,1.5-0.1,2-0.4c0.5-0.3,0.9-0.7,1.2-1.2
	c0.3-0.5,0.4-1.1,0.4-1.8c0-0.7-0.1-1.3-0.4-1.8c-0.3-0.5-0.7-0.9-1.2-1.2c-0.5-0.3-1.2-0.4-2.1-0.4h-2.9v16.8H100.1z M130.7,17.8
	h4.3V31c0,1.5-0.4,2.8-1.1,3.9c-0.7,1.1-1.7,2-2.9,2.6c-1.3,0.6-2.7,0.9-4.4,0.9c-1.7,0-3.2-0.3-4.4-0.9c-1.3-0.6-2.2-1.5-2.9-2.6
	c-0.7-1.1-1.1-2.4-1.1-3.9V17.8h4.3v12.8c0,0.8,0.2,1.5,0.5,2.1c0.3,0.6,0.8,1.1,1.4,1.4c0.6,0.3,1.3,0.5,2.2,0.5
	c0.8,0,1.6-0.2,2.2-0.5c0.6-0.3,1.1-0.8,1.4-1.4c0.3-0.6,0.5-1.3,0.5-2.1V17.8z M138.6,38.1V17.8h8c1.5,0,2.8,0.3,3.9,0.8
	c1.1,0.5,1.9,1.3,2.5,2.3c0.6,1,0.9,2.2,0.9,3.5c0,1.3-0.3,2.5-0.9,3.5c-0.6,1-1.4,1.7-2.5,2.2c-1.1,0.5-2.4,0.8-4,0.8h-5.4v-3.5
	h4.7c0.8,0,1.5-0.1,2-0.3c0.5-0.2,0.9-0.6,1.2-1c0.3-0.4,0.4-1,0.4-1.7c0-0.7-0.1-1.2-0.4-1.7c-0.3-0.5-0.7-0.8-1.2-1.1
	c-0.5-0.2-1.2-0.4-2.1-0.4h-2.9v16.8H138.6z M149.5,28.9l5,9.2h-4.7l-4.9-9.2H149.5z M174.8,24.9h-4.3c-0.1-0.6-0.2-1.1-0.5-1.5
	c-0.2-0.4-0.6-0.8-0.9-1.1c-0.4-0.3-0.8-0.5-1.3-0.7c-0.5-0.2-1-0.2-1.6-0.2c-1.1,0-2,0.3-2.7,0.8c-0.8,0.5-1.4,1.3-1.8,2.3
	c-0.4,1-0.6,2.2-0.6,3.6c0,1.4,0.2,2.7,0.6,3.6c0.4,1,1,1.7,1.8,2.2c0.8,0.5,1.7,0.8,2.7,0.8c0.6,0,1.1-0.1,1.6-0.2
	c0.5-0.2,0.9-0.4,1.3-0.7c0.4-0.3,0.7-0.7,1-1.1c0.3-0.4,0.4-0.9,0.5-1.4l4.3,0c-0.1,0.9-0.4,1.8-0.8,2.7c-0.4,0.9-1,1.6-1.8,2.3
	c-0.7,0.7-1.6,1.2-2.7,1.6c-1,0.4-2.2,0.6-3.5,0.6c-1.8,0-3.4-0.4-4.9-1.2c-1.4-0.8-2.5-2-3.4-3.6c-0.8-1.6-1.2-3.4-1.2-5.6
	c0-2.2,0.4-4.1,1.3-5.7c0.8-1.6,2-2.7,3.4-3.6c1.4-0.8,3-1.2,4.8-1.2c1.2,0,2.3,0.2,3.3,0.5c1,0.3,1.9,0.8,2.7,1.4
	c0.8,0.6,1.4,1.4,1.9,2.3C174.3,22.7,174.7,23.7,174.8,24.9z M177.9,38.1V17.8h4.3v8.4h8.7v-8.4h4.3v20.3h-4.3v-8.4h-8.7v8.4H177.9z
	 M202.2,38.1h-4.6l7-20.3h5.5l7,20.3h-4.6l-5.1-15.7h-0.2L202.2,38.1z M201.9,30.1h10.9v3.4h-10.9V30.1z M230.2,23.6
	c-0.1-0.8-0.4-1.4-1-1.9c-0.6-0.4-1.4-0.7-2.4-0.7c-0.7,0-1.3,0.1-1.8,0.3c-0.5,0.2-0.9,0.5-1.1,0.8c-0.3,0.3-0.4,0.7-0.4,1.2
	c0,0.4,0.1,0.7,0.2,1c0.2,0.3,0.4,0.5,0.7,0.7c0.3,0.2,0.6,0.4,1,0.5c0.4,0.1,0.8,0.3,1.3,0.4l1.8,0.4c0.9,0.2,1.7,0.5,2.4,0.8
	c0.7,0.3,1.4,0.7,1.9,1.2c0.5,0.5,1,1.1,1.3,1.7c0.3,0.7,0.5,1.4,0.5,2.3c0,1.2-0.3,2.3-1,3.2c-0.6,0.9-1.5,1.6-2.7,2.1
	c-1.2,0.5-2.6,0.7-4.2,0.7c-1.6,0-3.1-0.3-4.3-0.8c-1.2-0.5-2.2-1.2-2.8-2.2c-0.7-1-1-2.2-1.1-3.7h4.2c0,0.7,0.2,1.2,0.6,1.7
	c0.4,0.4,0.8,0.8,1.4,1c0.6,0.2,1.3,0.3,2,0.3c0.7,0,1.4-0.1,1.9-0.3c0.5-0.2,1-0.5,1.3-0.9c0.3-0.4,0.4-0.8,0.4-1.3
	c0-0.5-0.1-0.8-0.4-1.2c-0.3-0.3-0.7-0.6-1.2-0.8c-0.5-0.2-1.1-0.4-1.9-0.6l-2.2-0.6c-1.7-0.4-3.1-1.1-4.1-2c-1-0.9-1.5-2.1-1.5-3.6
	c0-1.2,0.3-2.3,1-3.2c0.7-0.9,1.6-1.6,2.7-2.2c1.2-0.5,2.5-0.8,4-0.8c1.5,0,2.8,0.3,3.9,0.8c1.1,0.5,2,1.2,2.6,2.2
	c0.6,0.9,1,2,1,3.2H230.2z M237.4,38.1V17.8h13.7v3.5h-9.4v4.8h8.7v3.5h-8.7v4.8h9.4v3.5H237.4z M261,38.1V17.8h8
	c1.5,0,2.8,0.3,3.9,0.8c1.1,0.5,1.9,1.3,2.5,2.3c0.6,1,0.9,2.2,0.9,3.5c0,1.3-0.3,2.5-0.9,3.5c-0.6,1-1.4,1.7-2.5,2.2
	c-1.1,0.5-2.4,0.8-4,0.8h-5.4v-3.5h4.7c0.8,0,1.5-0.1,2-0.3c0.5-0.2,0.9-0.6,1.2-1c0.3-0.4,0.4-1,0.4-1.7c0-0.7-0.1-1.2-0.4-1.7
	c-0.3-0.5-0.7-0.8-1.2-1.1c-0.5-0.2-1.2-0.4-2.1-0.4h-2.9v16.8H261z M272,28.9l5,9.2h-4.7l-4.9-9.2H272z M279.3,38.1V17.8H293v3.5
	h-9.4v4.8h8.7v3.5h-8.7v4.8h9.4v3.5H279.3z M304.1,31h3.6l1.8,2.4l1.8,2.1l3.4,4.3h-4l-2.3-2.9l-1.2-1.7L304.1,31z M315.1,27.9
	c0,2.2-0.4,4.1-1.3,5.7c-0.8,1.6-2,2.7-3.4,3.6c-1.4,0.8-3,1.2-4.8,1.2c-1.8,0-3.4-0.4-4.9-1.2c-1.4-0.8-2.6-2-3.4-3.6
	c-0.8-1.6-1.3-3.4-1.3-5.6c0-2.2,0.4-4.1,1.3-5.7c0.8-1.6,2-2.7,3.4-3.6c1.4-0.8,3.1-1.2,4.9-1.2c1.8,0,3.4,0.4,4.8,1.2
	c1.4,0.8,2.6,2,3.4,3.6C314.7,23.8,315.1,25.7,315.1,27.9z M310.8,27.9c0-1.4-0.2-2.6-0.6-3.6c-0.4-1-1-1.7-1.8-2.2
	c-0.8-0.5-1.7-0.8-2.7-0.8s-1.9,0.3-2.7,0.8c-0.8,0.5-1.4,1.3-1.8,2.2c-0.4,1-0.6,2.2-0.6,3.6c0,1.4,0.2,2.6,0.6,3.6
	c0.4,1,1,1.7,1.8,2.2c0.8,0.5,1.7,0.8,2.7,0.8s1.9-0.3,2.7-0.8c0.8-0.5,1.4-1.3,1.8-2.2C310.5,30.6,310.8,29.4,310.8,27.9z
	 M330.8,17.8h4.3V31c0,1.5-0.4,2.8-1.1,3.9c-0.7,1.1-1.7,2-2.9,2.6c-1.3,0.6-2.7,0.9-4.4,0.9c-1.7,0-3.2-0.3-4.4-0.9
	c-1.3-0.6-2.2-1.5-2.9-2.6c-0.7-1.1-1.1-2.4-1.1-3.9V17.8h4.3v12.8c0,0.8,0.2,1.5,0.5,2.1c0.3,0.6,0.8,1.1,1.4,1.4
	c0.6,0.3,1.3,0.5,2.2,0.5c0.8,0,1.6-0.2,2.2-0.5c0.6-0.3,1.1-0.8,1.4-1.4c0.3-0.6,0.5-1.3,0.5-2.1V17.8z M338.7,38.1V17.8h13.7v3.5
	H343v4.8h8.7v3.5H343v4.8h9.4v3.5H338.7z M366.8,23.6c-0.1-0.8-0.4-1.4-1-1.9c-0.6-0.4-1.4-0.7-2.4-0.7c-0.7,0-1.3,0.1-1.8,0.3
	c-0.5,0.2-0.9,0.5-1.1,0.8c-0.3,0.3-0.4,0.7-0.4,1.2c0,0.4,0.1,0.7,0.2,1c0.2,0.3,0.4,0.5,0.7,0.7c0.3,0.2,0.6,0.4,1,0.5
	c0.4,0.1,0.8,0.3,1.2,0.4l1.8,0.4c0.9,0.2,1.7,0.5,2.4,0.8c0.7,0.3,1.4,0.7,1.9,1.2c0.5,0.5,1,1.1,1.3,1.7c0.3,0.7,0.5,1.4,0.5,2.3
	c0,1.2-0.3,2.3-1,3.2c-0.6,0.9-1.5,1.6-2.7,2.1c-1.2,0.5-2.6,0.7-4.2,0.7c-1.6,0-3.1-0.3-4.3-0.8c-1.2-0.5-2.2-1.2-2.8-2.2
	c-0.7-1-1-2.2-1.1-3.7h4.2c0,0.7,0.2,1.2,0.6,1.7c0.4,0.4,0.8,0.8,1.4,1c0.6,0.2,1.3,0.3,2,0.3c0.7,0,1.4-0.1,1.9-0.3
	c0.5-0.2,1-0.5,1.3-0.9c0.3-0.4,0.4-0.8,0.4-1.3c0-0.5-0.1-0.8-0.4-1.2c-0.3-0.3-0.7-0.6-1.2-0.8c-0.5-0.2-1.1-0.4-1.9-0.6l-2.2-0.6
	c-1.7-0.4-3.1-1.1-4.1-2c-1-0.9-1.5-2.1-1.5-3.6c0-1.2,0.3-2.3,1-3.2c0.7-0.9,1.6-1.6,2.7-2.2c1.2-0.5,2.5-0.8,4-0.8
	c1.5,0,2.8,0.3,3.9,0.8c1.1,0.5,2,1.2,2.6,2.2c0.6,0.9,1,2,1,3.2H366.8z M373.3,21.3v-3.5H390v3.5h-6.2v16.8h-4.2V21.3H373.3z"/>
<path className="logo-st0" d="M100.3,52.1h2.6l4.5,10.9h0.2l4.5-10.9h2.6v14.1h-2V56h-0.1l-4.2,10.2h-1.7L102.4,56h-0.1v10.2h-2V52.1z
	 M135.7,66.2h-2.3l5.1-14.1h2.5l5.1,14.1h-2.3l-4-11.5h-0.1L135.7,66.2z M136.1,60.7h7.3v1.8h-7.3V60.7z M176.3,52.1v14.1h-2
	l-7.2-10.3H167v10.3h-2.1V52.1h2l7.2,10.3h0.1V52.1H176.3z M197.4,66.2h-2.3l5.1-14.1h2.5l5.1,14.1h-2.3l-4-11.5h-0.1L197.4,66.2z
	 M197.8,60.7h7.3v1.8h-7.3V60.7z M235.5,56.5c-0.1-0.4-0.3-0.8-0.5-1.1c-0.2-0.3-0.5-0.6-0.8-0.9c-0.3-0.2-0.7-0.4-1.1-0.5
	c-0.4-0.1-0.8-0.2-1.3-0.2c-0.8,0-1.5,0.2-2.1,0.6c-0.6,0.4-1.1,1-1.5,1.8c-0.4,0.8-0.6,1.7-0.6,2.9c0,1.1,0.2,2.1,0.6,2.9
	c0.4,0.8,0.9,1.4,1.5,1.8c0.6,0.4,1.4,0.6,2.2,0.6c0.8,0,1.4-0.2,2-0.5c0.6-0.3,1-0.8,1.3-1.3c0.3-0.6,0.5-1.2,0.5-2l0.5,0.1h-4V59
	h5.5v1.6c0,1.2-0.3,2.2-0.8,3.1c-0.5,0.9-1.2,1.5-2.1,2c-0.9,0.5-1.9,0.7-3,0.7c-1.3,0-2.4-0.3-3.4-0.9c-1-0.6-1.7-1.4-2.2-2.5
	c-0.5-1.1-0.8-2.4-0.8-3.9c0-1.1,0.2-2.1,0.5-3c0.3-0.9,0.7-1.7,1.3-2.3c0.6-0.6,1.2-1.1,2-1.4c0.8-0.3,1.6-0.5,2.5-0.5
	c0.8,0,1.5,0.1,2.1,0.3c0.7,0.2,1.2,0.5,1.8,1c0.5,0.4,0.9,0.9,1.3,1.5c0.3,0.6,0.6,1.2,0.7,1.9H235.5z M257.3,66.2V52.1h8.8v1.8
	h-6.7v4.3h6.2V60h-6.2v4.3h6.8v1.8H257.3z M285.8,52.1h2.6l4.5,10.9h0.2l4.5-10.9h2.6v14.1h-2V56H298l-4.2,10.2h-1.7L288,56h-0.1
	v10.2h-2V52.1z M320.1,66.2V52.1h8.8v1.8h-6.7v4.3h6.2V60h-6.2v4.3h6.8v1.8H320.1z M359.9,52.1v14.1h-2l-7.2-10.3h-0.1v10.3h-2.1
	V52.1h2l7.2,10.3h0.1V52.1H359.9z M379.2,53.9v-1.8h10.9v1.8h-4.4v12.3h-2.1V53.9H379.2z"/>
</svg>
