<svg xmlns="http://www.w3.org/2000/svg" fill="none" viewBox="2.07 32.67 403.55 83.36">
<style>@keyframes spin{0%{transform:rotate(0deg)}to{transform:rotate(360deg)}}</style>
<path d="M2.068 69.228V48.352h8.236c1.583 0 2.932.303 4.047.908 1.114.598 1.963 1.43 2.548 2.497.591 1.06.887 2.283.887 3.67 0 1.386-.3 2.609-.897 3.669-.598 1.06-1.465 1.886-2.6 2.477-1.128.591-2.493.887-4.097.887h-5.25v-3.537h4.536c.85 0 1.55-.146 2.1-.439.557-.299.972-.71 1.244-1.233.278-.53.418-1.138.418-1.825 0-.693-.14-1.297-.418-1.814a2.79 2.79 0 0 0-1.244-1.213c-.557-.292-1.264-.438-2.12-.438H6.48v17.267H2.068Zm31.479-20.876h4.414V61.91c0 1.523-.364 2.854-1.091 3.996-.72 1.142-1.73 2.032-3.028 2.67-1.297.633-2.81.949-4.535.949-1.733 0-3.249-.316-4.547-.948-1.298-.64-2.307-1.53-3.027-2.67-.72-1.143-1.08-2.475-1.08-3.997V48.352h4.413v13.18c0 .795.173 1.502.52 2.12.353.619.85 1.105 1.488 1.458.639.353 1.383.53 2.232.53.857 0 1.6-.177 2.233-.53a3.72 3.72 0 0 0 1.478-1.458c.353-.618.53-1.325.53-2.12v-13.18Zm8.045 20.876V48.352h8.236c1.576 0 2.922.283 4.036.847 1.122.557 1.974 1.348 2.559 2.375.591 1.019.887 2.218.887 3.598 0 1.386-.3 2.579-.897 3.578-.598.992-1.465 1.753-2.6 2.283-1.128.53-2.494.795-4.097.795H44.2V58.28h4.801c.843 0 1.543-.116 2.1-.347.557-.231.972-.578 1.244-1.04.278-.462.418-1.036.418-1.722 0-.694-.14-1.278-.418-1.754-.272-.475-.69-.835-1.254-1.08-.557-.252-1.26-.377-2.11-.377h-2.977v17.267h-4.413Zm11.273-9.5 5.189 9.5H53.18l-5.076-9.5h4.76Zm25.983-4.067h-4.465a4.368 4.368 0 0 0-.5-1.54 3.916 3.916 0 0 0-.968-1.161 4.265 4.265 0 0 0-1.366-.734 5.227 5.227 0 0 0-1.661-.255c-1.08 0-2.022.268-2.824.805-.801.53-1.423 1.305-1.865 2.324-.442 1.013-.662 2.243-.662 3.69 0 1.488.22 2.739.662 3.751.449 1.013 1.074 1.777 1.876 2.294.802.516 1.73.775 2.782.775.592 0 1.139-.079 1.642-.235.51-.156.961-.384 1.355-.683.394-.306.72-.676.979-1.111.265-.435.448-.931.55-1.488l4.465.02a8.075 8.075 0 0 1-.867 2.773 8.331 8.331 0 0 1-1.845 2.375c-.767.693-1.685 1.243-2.752 1.651-1.06.401-2.26.601-3.598.601-1.862 0-3.527-.42-4.995-1.264-1.46-.842-2.616-2.062-3.465-3.659-.843-1.597-1.264-3.53-1.264-5.8 0-2.276.428-4.213 1.284-5.81.856-1.597 2.018-2.813 3.486-3.649 1.468-.843 3.12-1.264 4.954-1.264 1.21 0 2.33.17 3.364.51a8.53 8.53 0 0 1 2.762 1.488 7.656 7.656 0 0 1 1.957 2.375c.51.938.836 2.011.979 3.22Zm3.165 13.567V48.352h4.413v8.614h8.96v-8.614h4.404v20.876h-4.404v-8.623h-8.96v8.623h-4.413Zm25.014 0h-4.73l7.207-20.876h5.687l7.197 20.876h-4.73l-5.229-16.105h-.163l-5.239 16.105Zm-.296-8.205h11.172v3.445h-11.172v-3.446Zm29.018-6.667c-.082-.822-.432-1.46-1.05-1.916-.619-.455-1.458-.683-2.518-.683-.72 0-1.329.102-1.825.306-.496.197-.876.472-1.141.825a1.983 1.983 0 0 0-.388 1.203c-.013.374.065.7.235.979.177.278.418.52.724.723.305.197.659.37 1.06.52.401.143.829.265 1.284.367l1.876.449c.91.204 1.746.475 2.507.815.761.34 1.42.758 1.977 1.254.558.496.989 1.08 1.295 1.753.313.673.472 1.444.479 2.314-.007 1.278-.333 2.385-.978 3.323-.639.931-1.563 1.655-2.773 2.171-1.203.51-2.654.765-4.352.765-1.686 0-3.154-.259-4.404-.775-1.243-.516-2.215-1.281-2.915-2.293-.693-1.02-1.057-2.28-1.091-3.782h4.271c.048.7.248 1.284.602 1.753.36.462.839.812 1.437 1.05.605.231 1.287.346 2.049.346.747 0 1.396-.108 1.946-.326.558-.217.989-.52 1.295-.907.306-.387.459-.832.459-1.335 0-.469-.14-.863-.418-1.183-.272-.319-.673-.59-1.203-.815-.523-.224-1.165-.428-1.927-.612l-2.273-.57c-1.76-.428-3.149-1.098-4.169-2.009-1.019-.91-1.525-2.137-1.518-3.68-.007-1.263.329-2.367 1.009-3.312.686-.945 1.627-1.682 2.823-2.212 1.196-.53 2.555-.795 4.078-.795 1.549 0 2.901.265 4.056.795 1.162.53 2.066 1.267 2.712 2.212.645.945.978 2.039.999 3.282h-4.23Zm7.484 14.872V48.352h14.066v3.64h-9.652v4.974h8.929v3.639h-8.929v4.984h9.693v3.639h-14.107Zm24.219 0V48.352h8.236c1.576 0 2.922.283 4.036.847 1.122.557 1.974 1.348 2.559 2.375.591 1.019.887 2.218.887 3.598 0 1.386-.299 2.579-.897 3.578-.598.992-1.465 1.753-2.6 2.283-1.128.53-2.494.795-4.097.795h-5.515V58.28h4.801c.843 0 1.543-.116 2.1-.347.557-.231.972-.578 1.244-1.04.278-.462.418-1.036.418-1.722 0-.694-.14-1.278-.418-1.754-.272-.475-.69-.835-1.254-1.08-.557-.252-1.261-.377-2.11-.377h-2.977v17.267h-4.413Zm11.273-9.5 5.189 9.5h-4.873l-5.076-9.5h4.76Zm7.564 9.5V48.352h14.066v3.64h-9.653v4.974h8.93v3.639h-8.93v4.984h9.694v3.639h-14.107Zm25.455-7.257h3.751l1.885 2.426 1.856 2.16 3.496 4.383h-4.118l-2.406-2.956-1.233-1.753-3.231-4.26Zm11.304-3.18c0 2.276-.432 4.212-1.295 5.81-.856 1.596-2.025 2.816-3.506 3.659-1.475.835-3.133 1.253-4.974 1.253-1.856 0-3.52-.42-4.995-1.264-1.475-.842-2.64-2.062-3.496-3.659-.857-1.597-1.285-3.53-1.285-5.8 0-2.276.428-4.213 1.285-5.81.856-1.597 2.021-2.813 3.496-3.649 1.475-.843 3.139-1.264 4.995-1.264 1.841 0 3.499.421 4.974 1.264 1.481.836 2.65 2.052 3.506 3.65.863 1.596 1.295 3.533 1.295 5.81Zm-4.475 0c0-1.475-.221-2.719-.663-3.731-.434-1.013-1.049-1.78-1.844-2.304-.796-.523-1.727-.785-2.793-.785-1.067 0-1.998.262-2.793.785-.795.523-1.414 1.291-1.855 2.303-.435 1.013-.653 2.257-.653 3.731 0 1.475.218 2.718.653 3.73.441 1.013 1.06 1.781 1.855 2.305.795.523 1.726.784 2.793.784 1.066 0 1.997-.261 2.793-.784.795-.524 1.41-1.292 1.844-2.304.442-1.013.663-2.256.663-3.73Zm20.639-10.439h4.413V61.91c0 1.523-.363 2.854-1.09 3.996-.721 1.142-1.73 2.032-3.028 2.67-1.298.633-2.81.949-4.536.949-1.733 0-3.248-.316-4.546-.948-1.298-.64-2.307-1.53-3.027-2.67-.721-1.143-1.081-2.475-1.081-3.997V48.352h4.414v13.18c0 .795.173 1.502.52 2.12a3.786 3.786 0 0 0 1.488 1.458c.639.353 1.383.53 2.232.53.856 0 1.601-.177 2.233-.53a3.728 3.728 0 0 0 1.478-1.458c.353-.618.53-1.325.53-2.12v-13.18Zm8.045 20.876V48.352h14.066v3.64h-9.653v4.974h8.929v3.639h-8.929v4.984h9.694v3.639h-14.107Zm28.9-14.872c-.082-.822-.432-1.46-1.05-1.916-.619-.455-1.458-.683-2.518-.683-.72 0-1.328.102-1.824.306-.497.197-.877.472-1.142.825a1.988 1.988 0 0 0-.387 1.203c-.014.374.064.7.234.979.177.278.418.52.724.723a5.5 5.5 0 0 0 1.06.52c.401.143.829.265 1.284.367l1.876.449c.91.204 1.746.475 2.507.815.761.34 1.42.758 1.978 1.254.557.496.988 1.08 1.294 1.753.313.673.472 1.444.479 2.314-.007 1.278-.333 2.385-.978 3.323-.639.931-1.563 1.655-2.773 2.171-1.203.51-2.653.765-4.352.765-1.686 0-3.153-.259-4.404-.775-1.243-.516-2.215-1.281-2.915-2.293-.693-1.02-1.057-2.28-1.091-3.782h4.271c.048.7.248 1.284.602 1.753.36.462.839.812 1.437 1.05.605.231 1.288.346 2.049.346.747 0 1.396-.108 1.947-.326.557-.217.988-.52 1.294-.907.306-.387.459-.832.459-1.335 0-.469-.139-.863-.418-1.183-.272-.319-.673-.59-1.203-.815-.523-.224-1.165-.428-1.926-.612l-2.273-.57c-1.76-.428-3.15-1.098-4.169-2.009-1.02-.91-1.526-2.137-1.519-3.68-.007-1.263.329-2.367 1.009-3.312.686-.945 1.627-1.682 2.823-2.212 1.196-.53 2.556-.795 4.078-.795 1.549 0 2.901.265 4.057.795 1.162.53 2.065 1.267 2.711 2.212.646.945.978 2.039.999 3.282h-4.23Zm6.689-2.365v-3.639h17.145v3.64H293.6v17.236h-4.363V51.991h-6.391Z" fill="#078C61"/><path d="M2.236 82.829h2.65L9.496 94.08h.17l4.608-11.252h2.65v14.475h-2.078V86.829h-.134l-4.269 10.454H8.717l-4.269-10.46h-.134v10.481H2.236V82.829Zm36.401 14.475H36.32l5.209-14.475h2.523l5.21 14.475h-2.32L42.85 85.458h-.114l-4.099 11.846Zm.389-5.669h7.52v1.838h-7.52v-1.838ZM80.35 82.83v14.475h-2.008l-7.358-10.616h-.134v10.616h-2.184V82.829h2.022l7.364 10.63h.135v-10.63h2.163Zm21.724 14.475h-2.318l5.209-14.475h2.523l5.209 14.475h-2.318l-4.093-11.846h-.113l-4.099 11.846Zm.389-5.669h7.52v1.838h-7.52v-1.838Zm38.756-4.233a4.456 4.456 0 0 0-.551-1.152 3.555 3.555 0 0 0-.813-.877 3.412 3.412 0 0 0-1.082-.558c-.4-.127-.841-.19-1.321-.19-.815 0-1.551.209-2.206.628-.654.42-1.173 1.034-1.554 1.845-.377.806-.566 1.793-.566 2.961 0 1.174.191 2.166.573 2.976.381.81.904 1.425 1.569 1.845.664.419 1.42.629 2.268.629.787 0 1.473-.16 2.057-.48a3.346 3.346 0 0 0 1.364-1.358c.325-.589.488-1.282.488-2.078l.565.106h-4.141v-1.802h5.689v1.647c0 1.215-.259 2.27-.777 3.166a5.294 5.294 0 0 1-2.135 2.064c-.904.485-1.941.728-3.11.728-1.309 0-2.459-.302-3.449-.905-.984-.603-1.752-1.458-2.304-2.566-.551-1.112-.827-2.43-.827-3.958 0-1.154.16-2.19.481-3.11.32-.918.77-1.698 1.35-2.339a5.89 5.89 0 0 1 2.057-1.477c.791-.344 1.656-.516 2.594-.516.782 0 1.51.115 2.184.346.678.231 1.281.559 1.809.983a5.575 5.575 0 0 1 2.028 3.442h-2.24Zm22.428 9.902V82.829h9.075v1.88h-6.891v4.41h6.417v1.873h-6.417v4.432h6.976v1.88h-9.16Zm29.308-14.475h2.65l4.608 11.252h.17l4.608-11.252h2.651v14.475h-2.078V86.829h-.134l-4.269 10.454h-1.725l-4.269-10.46h-.134v10.481h-2.078V82.829Zm35.178 14.475V82.829h9.075v1.88h-6.891v4.41h6.418v1.873h-6.418v4.432h6.976v1.88h-9.16Zm40.991-14.475v14.475h-2.007l-7.358-10.616h-.134v10.616h-2.184V82.829h2.022l7.364 10.63h.135v-10.63h2.162Zm19.788 1.88v-1.88h11.203v1.88h-4.517v12.595h-2.177V84.709h-4.509Z" fill="#FBBC04"/>
<g style="animation:spin 5s linear infinite;transform-box:fill-box;transform-origin:center"><path d="M358.433 38.354c4.378-7.583 15.322-7.583 19.699 0l25.946 44.94c4.378 7.582-1.094 17.059-9.849 17.059h-51.892c-8.756 0-14.228-9.477-9.85-17.06l25.946-44.94Z" fill="#FBBC04"/><path d="m392.12 103.605 7.321-51.373c1.389-9.751-8.298-17.35-17.437-13.678l-48.151 19.347c-9.14 3.672-10.877 15.86-3.127 21.94l40.83 32.026c7.75 6.079 19.174 1.489 20.564-8.262Z" fill="#078C61" stroke="#F8F7FA" stroke-width="2.843"/><circle cx="369.243" cy="74.959" r="8.567" fill="#fff"/></g>
</svg>