<?xml version="1.0" encoding="utf-8"?>
<!-- Generator: Adobe Illustrator 24.1.2, SVG Export Plug-In . SVG Version: 6.00 Build 0)  -->
<svg version="1.1" id="Layer_1" xmlns="http://www.w3.org/2000/svg" xmlns:xlink="http://www.w3.org/1999/xlink" x="0px" y="0px"
	 viewBox="0 0 20.2 9" style="enable-background:new 0 0 20.2 9;" xml:space="preserve">
<style type="text/css">
	.st0{fill:#078C61;}
</style>
<path className="st0" d="M19.1,2.3h-18c-0.4,0-0.8-0.2-1-0.6c-0.2-0.3-0.2-0.8,0-1.1C0.4,0.2,0.7,0,1.1,0h18c0.4,0,0.8,0.2,1,0.6
	c0.2,0.3,0.2,0.8,0,1.1C19.9,2,19.5,2.3,19.1,2.3z M20.2,7.9c0-0.3-0.1-0.6-0.3-0.8s-0.5-0.3-0.8-0.3H8.6c-0.4,0-0.8,0.2-1,0.6
	c-0.2,0.3-0.2,0.8,0,1.1C7.9,8.8,8.2,9,8.6,9h10.5c0.3,0,0.6-0.1,0.8-0.3C20.1,8.5,20.2,8.2,20.2,7.9L20.2,7.9z"/>
</svg>
