<svg width="24" height="31" viewBox="0 0 24 31" fill="none" xmlns="http://www.w3.org/2000/svg">
<path fill-rule="evenodd" clip-rule="evenodd" d="M9.592 22.2068C13.281 22.2068 16.434 22.7658 16.434 24.9988C16.434 27.2318 13.302 27.8068 9.592 27.8068C5.902 27.8068 2.75 27.2528 2.75 25.0188C2.75 22.7848 5.881 22.2068 9.592 22.2068Z" stroke="#078C61" stroke-width="1.5" stroke-linecap="round" stroke-linejoin="round"/>
<path fill-rule="evenodd" clip-rule="evenodd" d="M9.59108 19.0198C7.16908 19.0198 5.20508 17.0568 5.20508 14.6348C5.20508 12.2128 7.16908 10.2498 9.59108 10.2498C12.0121 10.2498 13.9761 12.2128 13.9761 14.6348C13.9851 17.0478 12.0351 19.0108 9.62208 19.0198H9.59108Z" stroke="#078C61" stroke-width="1.5" stroke-linecap="round" stroke-linejoin="round"/>
<path d="M16.4844 17.8815C18.0854 17.6565 19.3184 16.2825 19.3214 14.6195C19.3214 12.9805 18.1264 11.6205 16.5594 11.3635" stroke="#078C61" stroke-width="1.5" stroke-linecap="round" stroke-linejoin="round"/>
<path d="M18.5957 21.7322C20.1467 21.9632 21.2297 22.5072 21.2297 23.6272C21.2297 24.3982 20.7197 24.8982 19.8957 25.2112" stroke="#078C61" stroke-width="1.5" stroke-linecap="round" stroke-linejoin="round"/>
<path fill-rule="evenodd" clip-rule="evenodd" d="M22.1518 7.1512C21.0057 8.29738 19.3087 8.54501 17.9199 7.90276C17.7149 7.82021 17.5468 7.7535 17.387 7.7535C16.9419 7.75614 16.3879 8.1877 16.1 7.90012C15.8121 7.61216 16.244 7.05773 16.244 6.60996C16.244 6.45015 16.1799 6.28506 16.0974 6.07964C15.4548 4.69111 15.7028 2.99351 16.8488 1.8477C18.3118 0.384162 20.6888 0.384162 22.1518 1.84733C23.6174 3.31313 23.6148 5.68803 22.1518 7.1512Z" stroke="#078C61" stroke-linecap="round" stroke-linejoin="round"/>
<path d="M20.9768 4.65479H20.9802" stroke="#078C61" stroke-linecap="round" stroke-linejoin="round"/>
<path d="M19.4749 4.65479H19.4782" stroke="#078C61" stroke-linecap="round" stroke-linejoin="round"/>
<path d="M17.971 4.65479H17.9743" stroke="#078C61" stroke-linecap="round" stroke-linejoin="round"/>
</svg>
