<svg width="66" height="66" viewBox="0 0 66 66" fill="none" xmlns="http://www.w3.org/2000/svg">
<circle cx="33" cy="33" r="33" fill="#B5B5B5"/>
<path fill-rule="evenodd" clip-rule="evenodd" d="M33.2184 38.0217H32.7813C29.7771 38.0217 27.342 35.6159 27.342 32.6504V26.8713C27.342 23.9047 29.7771 21.5 32.7813 21.5H33.2184C36.2227 21.5 38.659 23.9047 38.659 26.8713V32.6504C38.659 35.6159 36.2227 38.0217 33.2184 38.0217ZM41.2032 32.4786C41.2032 31.8173 41.7457 31.2828 42.4141 31.2828C43.0825 31.2828 43.625 31.8173 43.625 32.4786C43.625 37.8583 39.5007 42.3005 34.2115 42.8972V45.3042C34.2115 45.9643 33.669 46.5 33.0006 46.5C32.331 46.5 31.7897 45.9643 31.7897 45.3042V42.8972C26.4993 42.3005 22.375 37.8583 22.375 32.4786C22.375 31.8173 22.9175 31.2828 23.5859 31.2828C24.2543 31.2828 24.7968 31.8173 24.7968 32.4786C24.7968 36.9447 28.4767 40.5786 33.0006 40.5786C37.5233 40.5786 41.2032 36.9447 41.2032 32.4786Z" fill="white"/>
</svg>
