<svg width="18" height="18" viewBox="0 0 18 18" fill="none" xmlns="http://www.w3.org/2000/svg">
<mask id="path-1-outside-1_105_6428" maskUnits="userSpaceOnUse" x="0.00292969" y="0.00170898" width="18" height="18" fill="black">
<rect fill="white" x="0.00292969" y="0.00170898" width="18" height="18"/>
<path fill-rule="evenodd" clip-rule="evenodd" d="M12.1429 1.00171C12.4662 1.00171 12.8482 1.00824 12.9919 1.0164C13.1356 1.0262 13.3592 1.04416 13.4898 1.05885C13.6205 1.07191 13.8213 1.09804 13.9388 1.11436C14.0547 1.13232 14.2278 1.16008 14.3225 1.17804C14.4172 1.19599 14.5641 1.22538 14.649 1.24497C14.7339 1.26293 14.889 1.30212 14.9919 1.32987C15.0947 1.35599 15.2858 1.4164 15.4164 1.46048C15.547 1.5062 15.7413 1.58293 15.849 1.63028C15.9568 1.67926 16.1103 1.75926 16.1919 1.80661C16.2719 1.85559 16.3845 1.92906 16.4401 1.96987C16.4972 2.01069 16.5886 2.09069 16.6458 2.1462C16.7013 2.20334 16.7813 2.2964 16.8205 2.35518C16.8596 2.41395 16.9152 2.51681 16.9919 2.7062V12.094L16.9511 12.2001C16.9282 12.2589 16.8841 12.3503 16.8531 12.4025C16.8221 12.4564 16.729 12.5674 16.649 12.6491C16.5674 12.7307 16.4352 12.8417 16.3552 12.8956C16.2735 12.9511 16.1462 13.0278 16.0694 13.0703C15.9927 13.1111 15.849 13.178 15.7511 13.2205C15.6515 13.2629 15.4752 13.3282 15.3592 13.3674C15.2417 13.4066 15.0474 13.4637 14.9266 13.4964C14.8058 13.5274 14.5952 13.5764 14.4613 13.6042C14.3258 13.6303 14.0907 13.6711 13.9388 13.6923C13.7854 13.7152 13.5437 13.7446 13.4001 13.7576C13.2564 13.7723 12.9984 13.7903 12.8286 13.8001C12.6572 13.8082 12.3715 13.8164 12.1919 13.8164C12.0123 13.8164 11.725 13.8082 11.5552 13.8001C11.3837 13.7903 11.1307 13.7723 10.9919 13.7576C10.8531 13.7446 10.7111 13.7282 10.6164 13.7103V14.4613C10.6164 15.0948 10.6115 15.227 10.5903 15.3103C10.5756 15.3642 10.5396 15.4572 10.5086 15.5176C10.4776 15.5797 10.4188 15.6711 10.378 15.7217C10.3372 15.774 10.2735 15.8442 10.236 15.8784C10.1984 15.9144 10.1086 15.9862 10.0368 16.0401C9.96495 16.094 9.83597 16.1772 9.75107 16.2262C9.66617 16.2735 9.50781 16.3503 9.40005 16.396C9.2923 16.4433 9.11924 16.5103 9.01638 16.5446C8.91352 16.5805 8.7372 16.6344 8.62454 16.6654C8.51189 16.6964 8.31597 16.7437 8.18699 16.7715C8.05964 16.7976 7.8425 16.8384 7.70536 16.8613C7.56985 16.8842 7.32169 16.9168 7.15515 16.9348C6.98862 16.9527 6.74209 16.974 6.60822 16.9837C6.47271 16.9919 6.11352 17.0001 5.80822 17.0001C5.50291 17.0001 5.14209 16.9919 5.00822 16.9837C4.87271 16.974 4.62781 16.9527 4.46128 16.9348C4.29475 16.9168 4.04495 16.8842 3.90617 16.8613C3.7674 16.8384 3.56495 16.8009 3.4572 16.778C3.34944 16.7552 3.16495 16.7111 3.04903 16.6817C2.93148 16.6507 2.73066 16.5886 2.60005 16.5446C2.46944 16.5005 2.30128 16.4368 2.22454 16.4042C2.14781 16.3715 2.01556 16.3078 1.93066 16.2621C1.84577 16.2164 1.71026 16.1348 1.62862 16.0793C1.54862 16.0254 1.42781 15.9242 1.35924 15.8572C1.29066 15.7903 1.2074 15.6907 1.17148 15.6368C1.13556 15.5829 1.08495 15.4833 1.00822 15.294L1.00332 11.7593C1.00168 9.14212 1.00495 8.20171 1.01801 8.13477C1.02944 8.08579 1.07026 7.97803 1.11107 7.89804C1.17311 7.77559 1.2123 7.72334 1.34944 7.5862C1.4474 7.48824 1.57801 7.38048 1.66944 7.31844C1.75434 7.26293 1.9274 7.16661 2.05311 7.10457C2.17883 7.04416 2.37638 6.95926 2.49393 6.91844C2.60985 6.87599 2.80577 6.81395 2.92658 6.77804C3.0474 6.74375 3.24658 6.69314 3.3674 6.66702C3.48822 6.63926 3.6972 6.59844 3.83271 6.57722C3.96658 6.55436 4.16577 6.52497 4.27352 6.51191C4.38128 6.49722 4.60495 6.47436 4.77148 6.45803C5.00495 6.43681 5.24005 6.43028 5.80822 6.43028C6.38618 6.42865 6.61148 6.43518 6.86128 6.45803C7.03597 6.47436 7.22373 6.49395 7.2776 6.50048C7.33148 6.50865 7.3772 6.51355 7.37883 6.51191C7.38046 6.51191 7.38536 5.65477 7.39189 2.7062L7.43924 2.59191C7.46536 2.52824 7.5176 2.43028 7.55515 2.3715C7.59271 2.31273 7.66944 2.21804 7.72822 2.15926C7.78536 2.10048 7.87352 2.02212 7.9225 1.98457C7.97148 1.94702 8.08903 1.87028 8.18373 1.81314C8.27842 1.75599 8.43189 1.67599 8.52658 1.63518C8.62128 1.59273 8.76822 1.53395 8.85311 1.5013C8.93801 1.46865 9.10781 1.41314 9.22862 1.37722C9.34944 1.33967 9.56658 1.28416 9.71026 1.2515C9.85393 1.21885 10.0956 1.1715 10.249 1.14702C10.4009 1.12089 10.6654 1.08497 10.8368 1.06538C11.0066 1.04742 11.2384 1.0262 11.3511 1.01804C11.4637 1.0115 11.8196 1.00334 12.1429 1.00171ZM11.098 1.73477C10.9903 1.74457 10.7698 1.77232 10.6082 1.79518C10.4466 1.8164 10.2082 1.85722 10.0776 1.88334C9.94699 1.90946 9.74454 1.95681 9.62862 1.98783C9.51107 2.01885 9.34291 2.06946 9.25311 2.10048C9.16332 2.12987 9.03271 2.17885 8.9625 2.20661C8.89393 2.23436 8.77964 2.28497 8.70944 2.32089C8.64087 2.35518 8.51679 2.42865 8.43679 2.48089C8.35515 2.53477 8.25393 2.61967 8.21148 2.66702C8.1674 2.71599 8.11842 2.78457 8.10046 2.82048C8.08413 2.8564 8.06944 2.90702 8.06944 2.93477C8.06944 2.96089 8.08577 3.0164 8.10536 3.05722C8.12658 3.09804 8.18209 3.1715 8.23271 3.22212C8.28169 3.27273 8.38454 3.35436 8.46128 3.40497C8.53801 3.45395 8.67679 3.53232 8.77148 3.5764C8.86618 3.62212 9.01638 3.68579 9.10618 3.71844C9.19597 3.75273 9.37883 3.80987 9.51434 3.84906C9.64822 3.88824 9.88332 3.94538 10.0368 3.9764C10.1886 4.00906 10.4466 4.05314 10.6082 4.07599C10.7698 4.09885 11.0458 4.12987 11.2205 4.1462C11.4621 4.16742 11.6972 4.17395 12.1919 4.17395C12.6866 4.17395 12.9217 4.16742 13.1633 4.1462C13.338 4.12987 13.6139 4.09885 13.7756 4.07599C13.9372 4.05314 14.1723 4.01395 14.298 3.98783C14.4237 3.96171 14.6033 3.92253 14.698 3.89804C14.7927 3.87355 14.9494 3.82946 15.049 3.79681C15.147 3.76579 15.3005 3.71028 15.387 3.67599C15.4752 3.64008 15.6009 3.5862 15.6645 3.55355C15.7298 3.52089 15.8458 3.45395 15.9225 3.40334C15.9992 3.35436 16.1021 3.27273 16.1511 3.22212C16.2017 3.1715 16.2572 3.09804 16.2784 3.05722C16.298 3.0164 16.3143 2.96089 16.3143 2.93477C16.3143 2.90702 16.298 2.85314 16.2784 2.81232C16.2588 2.7715 16.1984 2.69477 16.1445 2.64089C16.089 2.58538 15.9976 2.51028 15.9388 2.4711C15.8801 2.43355 15.7364 2.35518 15.6205 2.29804C15.5029 2.24089 15.3086 2.16089 15.1878 2.11844C15.067 2.07763 14.8711 2.01722 14.7552 1.9862C14.6376 1.95681 14.4368 1.90946 14.3062 1.88334C14.1756 1.85722 13.9666 1.81967 13.8409 1.80171C13.7152 1.78375 13.5013 1.75763 13.3674 1.74457C13.2319 1.72987 12.987 1.71191 12.8205 1.70212C12.6539 1.69395 12.3454 1.68742 12.1347 1.68742C11.9241 1.68906 11.6482 1.69559 11.5225 1.70375C11.3968 1.71028 11.2058 1.72497 11.098 1.73477ZM8.06781 4.60171C8.06944 5.19926 8.06944 5.21395 8.10536 5.28906C8.12658 5.33314 8.18373 5.40824 8.23271 5.45885C8.28169 5.50946 8.38128 5.58946 8.45311 5.63681C8.52495 5.68253 8.66373 5.76089 8.76332 5.80824C8.86128 5.85559 9.01475 5.92089 9.10128 5.95355C9.18944 5.9862 9.3772 6.04497 9.5176 6.08579C9.65964 6.12824 9.91924 6.18865 10.0939 6.22457C10.2686 6.25885 10.5266 6.30293 10.6654 6.32089C10.8041 6.33885 11.0474 6.36661 11.2041 6.37967C11.3609 6.39436 11.7021 6.40906 11.9633 6.41559C12.2507 6.42048 12.5723 6.41722 12.7796 6.40579C12.9674 6.39599 13.2319 6.3764 13.3674 6.36171C13.5013 6.34865 13.7331 6.31926 13.8817 6.2964C14.0303 6.27355 14.2539 6.23273 14.3796 6.20661C14.5054 6.18048 14.7029 6.13314 14.8205 6.10048C14.9364 6.06783 15.1241 6.00906 15.2368 5.96824C15.3494 5.92742 15.5143 5.86048 15.6041 5.81804C15.6939 5.77559 15.8327 5.69885 15.9143 5.64661C15.9943 5.59273 16.1021 5.50946 16.1511 5.45885C16.2001 5.40824 16.2572 5.33314 16.2784 5.28906C16.3143 5.21395 16.3143 5.20089 16.3143 4.60008V3.98783C16.1054 4.11355 15.9568 4.19028 15.849 4.23926C15.7413 4.28661 15.5421 4.36497 15.4082 4.41069C15.2727 4.45804 15.0376 4.52824 14.8858 4.56742C14.7323 4.60661 14.4874 4.66212 14.3388 4.68987C14.1903 4.71763 13.9584 4.75355 13.8245 4.7715C13.689 4.78946 13.4588 4.81559 13.3103 4.83028C13.1617 4.84334 12.8498 4.8613 12.6164 4.86783C12.3796 4.87599 12.0041 4.87599 11.7674 4.86783C11.5339 4.8613 11.2172 4.84334 11.0654 4.82865C10.9119 4.81395 10.6556 4.78457 10.4939 4.76171C10.3323 4.73885 10.089 4.69804 9.95515 4.67191C9.81964 4.64416 9.61393 4.59681 9.49801 4.56742C9.38046 4.53804 9.19434 4.48416 9.08169 4.44661C8.96903 4.41069 8.78618 4.34375 8.67352 4.2964C8.56087 4.25069 8.42536 4.19028 8.37148 4.16416C8.3176 4.1364 8.22618 4.08579 8.16903 4.0515L8.06617 3.98946L8.06781 4.60171ZM8.07107 6.42865L8.06944 6.63436C8.26536 6.67518 8.42862 6.71436 8.55924 6.74865C8.68985 6.78293 8.90209 6.84824 9.03271 6.89232C9.16332 6.93804 9.35434 7.0115 9.4572 7.05885C9.56005 7.10457 9.71026 7.1813 9.79189 7.22865C9.87189 7.27599 9.9976 7.35926 10.0694 7.41314C10.1413 7.46701 10.2458 7.56171 10.3029 7.62375C10.3601 7.68579 10.4319 7.77559 10.4613 7.8262C10.4923 7.87518 10.5364 7.96661 10.5609 8.03028C10.6017 8.1315 10.6066 8.16579 10.6066 8.34538C10.6082 8.5315 10.6098 8.5462 10.6409 8.55273C10.6588 8.55599 10.7764 8.57069 10.9021 8.58375C11.0278 8.59681 11.2303 8.6164 11.3511 8.62457C11.4719 8.63436 11.7396 8.64579 11.947 8.65232C12.169 8.65885 12.4792 8.65395 12.7062 8.64253C12.9168 8.63273 13.1992 8.61314 13.3347 8.60008C13.4686 8.58701 13.6825 8.56089 13.8082 8.54293C13.9339 8.52497 14.1315 8.49069 14.249 8.46946C14.365 8.44661 14.5707 8.39926 14.7062 8.36497C14.8401 8.32906 15.036 8.27191 15.1388 8.23763C15.2417 8.20171 15.4001 8.14293 15.4898 8.10375C15.5796 8.0662 15.7119 8.00089 15.7837 7.96008C15.8556 7.91926 15.9535 7.85722 15.9992 7.82293C16.0466 7.78865 16.1184 7.72497 16.1592 7.68252C16.2001 7.64008 16.2523 7.56824 16.2735 7.52416L16.3143 7.44252V6.2262C16.2066 6.28987 16.0972 6.34865 15.9992 6.39763C15.9029 6.44661 15.7674 6.51028 15.6972 6.53804C15.6286 6.56579 15.4752 6.6213 15.3592 6.66048C15.2417 6.7013 15.0507 6.75844 14.9347 6.78946C14.8172 6.82048 14.5935 6.8711 14.4368 6.90212C14.2801 6.93314 14.0482 6.97395 13.9225 6.99191C13.7968 7.00987 13.5829 7.03599 13.449 7.04906C13.3135 7.06212 13.0572 7.08171 12.8776 7.09314C12.6703 7.10457 12.3356 7.10783 11.9633 7.1013C11.6401 7.0964 11.2939 7.08497 11.196 7.07518C11.0964 7.06538 10.9135 7.04742 10.7878 7.03273C10.6621 7.01967 10.4417 6.98865 10.298 6.96579C10.1543 6.94293 9.95189 6.90701 9.84903 6.88416C9.74617 6.86293 9.56495 6.82048 9.44903 6.78946C9.33148 6.75844 9.15516 6.7062 9.0572 6.67355C8.9576 6.64089 8.80577 6.58538 8.7176 6.5511C8.63107 6.51518 8.48087 6.44661 8.38291 6.39763C8.28658 6.34865 8.1772 6.28987 8.13964 6.26701L8.07271 6.22293L8.07107 6.42865ZM4.7225 7.16497C4.56577 7.17804 4.33393 7.20579 4.20822 7.22375C4.0825 7.24171 3.88332 7.27436 3.7674 7.29722C3.64985 7.32008 3.46699 7.36089 3.35924 7.38701C3.25148 7.41477 3.07842 7.46212 2.97556 7.49477C2.87271 7.52579 2.71597 7.5813 2.62781 7.61559C2.54128 7.6515 2.40087 7.71355 2.3176 7.75436C2.23597 7.79681 2.11515 7.86538 2.05311 7.90946C1.98944 7.95191 1.89638 8.03028 1.84577 8.08252C1.79515 8.13477 1.73964 8.20987 1.72005 8.25069C1.70209 8.2915 1.68577 8.34212 1.68577 8.36497C1.68577 8.38783 1.70046 8.43681 1.71842 8.47599C1.73638 8.51355 1.78209 8.57885 1.81964 8.61967C1.85883 8.66212 1.93066 8.72742 1.97964 8.76497C2.02862 8.80253 2.12005 8.86293 2.18373 8.90048C2.24577 8.93804 2.37311 9.00171 2.46454 9.04253C2.5576 9.08334 2.72577 9.14865 2.84005 9.18783C2.95597 9.22701 3.13393 9.28089 3.23679 9.30865C3.33964 9.3364 3.53066 9.38212 3.66128 9.40824C3.79189 9.43436 4.02699 9.47518 4.18373 9.49804C4.34046 9.52089 4.59842 9.55191 4.75515 9.56824C4.98373 9.5911 5.19271 9.59763 5.80822 9.59763C6.42373 9.59763 6.63107 9.5911 6.86128 9.56824C7.01801 9.55191 7.27597 9.52089 7.43271 9.49804C7.58944 9.47518 7.82454 9.43436 7.95515 9.40824C8.08577 9.38212 8.27679 9.3364 8.37964 9.30865C8.4825 9.28089 8.66046 9.22701 8.77475 9.18783C8.89067 9.14865 9.05883 9.08334 9.15026 9.04253C9.24332 9.00171 9.36903 8.93804 9.43271 8.90048C9.49475 8.86293 9.58781 8.80253 9.63679 8.76497C9.68577 8.72742 9.7576 8.66212 9.79515 8.61967C9.83434 8.57885 9.88005 8.51355 9.89801 8.47599C9.91597 8.43681 9.92903 8.38783 9.92903 8.36497C9.92903 8.34212 9.91434 8.2915 9.89638 8.25069C9.87679 8.20987 9.81964 8.13477 9.76903 8.08252C9.71842 8.03028 9.62536 7.95191 9.56332 7.90783C9.49964 7.86538 9.3576 7.78538 9.24495 7.7315C9.1323 7.67763 8.9674 7.60579 8.8776 7.57314C8.78781 7.54048 8.62618 7.48824 8.51842 7.45722C8.41067 7.4262 8.22618 7.37885 8.11026 7.3511C7.99271 7.32497 7.79189 7.28416 7.66128 7.26293C7.53066 7.24008 7.29556 7.20742 7.13883 7.1911C6.98209 7.17314 6.74209 7.15028 6.60822 7.14212C6.47271 7.13232 6.19026 7.12253 5.97964 7.11763C5.76903 7.11436 5.46373 7.11599 5.30209 7.12416C5.14046 7.13232 4.87924 7.15028 4.7225 7.16497ZM16.2409 8.50538C16.205 8.52824 16.0972 8.58701 15.9992 8.63599C15.9029 8.68497 15.7674 8.74701 15.6972 8.77477C15.6286 8.80416 15.4752 8.85804 15.3592 8.89885C15.2417 8.93804 15.0507 8.99518 14.9347 9.0262C14.8172 9.05722 14.5935 9.10783 14.4368 9.13885C14.2801 9.1715 14.0482 9.21069 13.9225 9.22865C13.7968 9.24661 13.5829 9.27273 13.449 9.28579C13.3135 9.30048 13.0768 9.31844 12.9217 9.32824C12.7682 9.3364 12.4368 9.34457 12.187 9.34457C11.9388 9.34457 11.6172 9.33804 11.4735 9.32824C11.3298 9.32008 11.0915 9.30048 10.9429 9.28742C10.7943 9.27273 10.6605 9.25803 10.6441 9.25477C10.618 9.24661 10.6164 9.29232 10.6115 10.0123L10.6082 10.7797C10.6833 10.7927 10.8058 10.8074 10.9266 10.8205C11.0474 10.8335 11.2613 10.8531 11.4001 10.8613C11.5388 10.8711 11.7821 10.8825 11.9388 10.8874C12.0956 10.8923 12.4041 10.8891 12.6245 10.8809C12.845 10.8711 13.1454 10.8515 13.2939 10.8368C13.4425 10.8237 13.6662 10.7976 13.7919 10.7797C13.9176 10.7617 14.1494 10.7225 14.3062 10.6899C14.4629 10.6589 14.6866 10.6066 14.8041 10.5756C14.9201 10.5429 15.1013 10.4874 15.2041 10.4515C15.307 10.4156 15.4833 10.3421 15.596 10.2882C15.7086 10.236 15.8588 10.1527 15.9307 10.1054C16.0025 10.0564 16.1054 9.97151 16.1592 9.91436C16.2147 9.85559 16.2703 9.77722 16.2866 9.7364C16.3127 9.6711 16.3143 9.60089 16.3111 9.06375L16.3062 8.4662L16.2409 8.50538ZM1.71842 10.7111C1.73638 10.7486 1.79026 10.8205 1.83597 10.8711C1.88332 10.9217 1.98781 11.0066 2.06944 11.0605C2.14944 11.1144 2.28169 11.1911 2.36332 11.2303C2.44332 11.2678 2.58046 11.3266 2.66536 11.3593C2.75026 11.3919 2.91189 11.4474 3.02454 11.4817C3.1372 11.516 3.34291 11.5699 3.48169 11.6025C3.62046 11.6352 3.84413 11.6793 3.97964 11.7021C4.11352 11.7233 4.35679 11.7576 4.51842 11.774C4.68005 11.7919 4.93311 11.8148 5.08169 11.8246C5.23026 11.8344 5.55679 11.8409 5.80822 11.8409C6.05964 11.8409 6.38618 11.8344 6.53475 11.8246C6.68332 11.8148 6.93638 11.7935 7.09801 11.7756C7.25964 11.7576 7.50128 11.7233 7.63679 11.7021C7.77067 11.6793 7.96658 11.6417 8.06944 11.6189C8.1723 11.596 8.34536 11.5519 8.45311 11.5225C8.56087 11.4931 8.74373 11.4344 8.86128 11.3919C8.9772 11.3495 9.14699 11.2809 9.23679 11.2368C9.32658 11.1944 9.46536 11.1144 9.54699 11.0605C9.62699 11.0066 9.73311 10.9217 9.77883 10.8711C9.82617 10.8205 9.88005 10.7486 9.89801 10.7111C9.9274 10.6458 9.92903 10.605 9.93067 10.0335C9.93067 9.69885 9.9274 9.42457 9.9225 9.42457C9.9176 9.42457 9.88332 9.44416 9.84413 9.46865C9.80658 9.49314 9.69883 9.55028 9.60413 9.59763C9.50944 9.64497 9.37393 9.70702 9.30209 9.7364C9.23026 9.76416 9.08658 9.8164 8.98373 9.85232C8.88087 9.88661 8.67026 9.94865 8.51842 9.98783C8.36495 10.027 8.12332 10.0825 7.97964 10.1103C7.83597 10.1364 7.61556 10.174 7.48985 10.1919C7.36413 10.2099 7.14373 10.2344 7.00005 10.2491C6.85638 10.2621 6.52985 10.2817 6.27352 10.2931C5.91107 10.3095 5.70373 10.3095 5.33475 10.2931C5.07352 10.2833 4.7176 10.2589 4.54291 10.2409C4.36822 10.2229 4.12495 10.1919 4.00413 10.174C3.88332 10.156 3.6776 10.1184 3.54699 10.0923C3.41638 10.0662 3.2074 10.0189 3.08169 9.9862C2.95597 9.95355 2.73883 9.88824 2.60005 9.84089C2.46128 9.79191 2.25883 9.71355 2.15107 9.66457C2.04332 9.61559 1.89801 9.54212 1.82781 9.5013C1.75924 9.45885 1.69883 9.42457 1.69393 9.42457C1.68903 9.42457 1.68577 9.69885 1.68577 10.0335C1.68577 10.605 1.68903 10.6458 1.71842 10.7111ZM16.2082 10.7601C16.1543 10.7911 16.0286 10.8564 15.9307 10.9037C15.8311 10.9511 15.6743 11.018 15.5796 11.054C15.485 11.0899 15.3233 11.1454 15.2205 11.178C15.1176 11.2107 14.9119 11.2662 14.7633 11.3005C14.6147 11.3364 14.4123 11.3805 14.3143 11.3984C14.2147 11.4164 14.0319 11.4474 13.9062 11.4654C13.7805 11.4833 13.5633 11.5078 13.4245 11.5225C13.2858 11.5356 13.0458 11.5535 12.8939 11.5633C12.7405 11.5731 12.4254 11.5797 12.1919 11.5797C11.9584 11.5797 11.6417 11.5731 11.4898 11.5633C11.3364 11.5535 11.098 11.5356 10.9592 11.5225C10.8205 11.5095 10.6866 11.4948 10.6605 11.4899L10.6164 11.4817L10.6082 13.0148C10.6833 13.0278 10.8123 13.0425 10.9429 13.0572C11.0735 13.0703 11.2939 13.0899 11.4327 13.0997C11.5715 13.1095 11.9176 13.116 12.2001 13.116C12.4825 13.116 12.8286 13.1078 12.9674 13.098C13.1062 13.0882 13.3494 13.067 13.5062 13.0491C13.6629 13.0311 13.9013 12.9984 14.0368 12.9756C14.1707 12.9527 14.3813 12.9119 14.5021 12.8842C14.6229 12.8564 14.8221 12.8042 14.9429 12.7682C15.0637 12.734 15.2482 12.6703 15.3511 12.6295C15.4539 12.5886 15.5976 12.5266 15.6694 12.4907C15.7413 12.4548 15.8588 12.3862 15.9307 12.3389C16.0025 12.2915 16.1054 12.2066 16.1592 12.1495C16.2147 12.0907 16.2703 12.0123 16.2866 11.9715C16.3127 11.9062 16.3143 11.836 16.3111 11.3005L16.3062 10.7013L16.2082 10.7601ZM1.71842 12.9478C1.73638 12.9854 1.79026 13.0589 1.83597 13.1095C1.88332 13.1584 1.98128 13.2401 2.05311 13.2874C2.12495 13.3348 2.27515 13.418 2.38781 13.4719C2.50046 13.5258 2.66862 13.5976 2.76332 13.6303C2.85801 13.6646 3.01964 13.7168 3.1225 13.7462C3.22536 13.7772 3.42781 13.8262 3.57148 13.8572C3.71515 13.8882 3.92413 13.9291 4.03679 13.947C4.14944 13.965 4.37311 13.9944 4.53475 14.0123C4.69638 14.0303 4.97556 14.0531 5.15515 14.0646C5.3576 14.076 5.6874 14.0793 6.02046 14.0744C6.31597 14.0678 6.68005 14.0531 6.82862 14.0384C6.9772 14.0254 7.2074 13.9976 7.34291 13.9797C7.47679 13.9617 7.6874 13.9274 7.80822 13.9062C7.92903 13.8833 8.14618 13.8344 8.28985 13.7984C8.43352 13.7609 8.6572 13.6956 8.78781 13.6515C8.91842 13.6074 9.1274 13.5209 9.25311 13.4589C9.37883 13.3984 9.54046 13.3038 9.6123 13.2515C9.68413 13.1976 9.77066 13.1209 9.80495 13.0817C9.8376 13.0425 9.87842 12.9837 9.89475 12.9527C9.91924 12.9021 9.9225 12.8237 9.92577 12.2784C9.92903 11.9389 9.92577 11.6629 9.9176 11.6629C9.91107 11.6629 9.86536 11.6874 9.81638 11.7184C9.7674 11.7478 9.67107 11.8001 9.60413 11.8344C9.5372 11.8686 9.38536 11.934 9.26944 11.9813C9.15189 12.027 8.9723 12.0923 8.86944 12.125C8.76658 12.156 8.59679 12.205 8.49393 12.2311C8.39107 12.2589 8.19515 12.3029 8.06128 12.3291C7.92577 12.3568 7.6874 12.3976 7.53066 12.4205C7.37393 12.4417 7.12413 12.4727 6.97556 12.4858C6.82699 12.5005 6.52658 12.5184 6.30618 12.5299C6.08413 12.5397 5.74618 12.5429 5.54699 12.5364C5.34944 12.5315 5.07679 12.5184 4.94291 12.5103C4.8074 12.5005 4.56577 12.4793 4.40413 12.4613C4.2425 12.4433 3.98128 12.4058 3.82454 12.3797C3.66781 12.3519 3.42781 12.3046 3.29393 12.2735C3.15842 12.2425 2.93801 12.1838 2.80413 12.1429C2.66862 12.1005 2.47434 12.0335 2.37148 11.9927C2.26862 11.9519 2.10209 11.8784 2.00413 11.8295C1.90454 11.7805 1.79679 11.7217 1.7625 11.7005C1.72985 11.6793 1.69883 11.6629 1.69393 11.6629C1.68903 11.6629 1.68577 11.9356 1.68577 12.2703C1.68577 12.8417 1.68903 12.8825 1.71842 12.9478ZM1.68577 14.4989C1.68577 15.0719 1.68903 15.1193 1.71679 15.1813C1.73475 15.2172 1.78373 15.2858 1.82781 15.3331C1.87026 15.3821 1.97148 15.4654 2.05311 15.5193C2.13311 15.5731 2.2572 15.645 2.32577 15.6809C2.39597 15.7152 2.51026 15.7674 2.57883 15.7952C2.64903 15.8229 2.77964 15.8703 2.86944 15.9013C2.95924 15.9323 3.1274 15.9829 3.24495 16.0123C3.36087 16.0433 3.56332 16.0907 3.69393 16.1168C3.82454 16.1446 4.06291 16.1854 4.22454 16.2066C4.38617 16.2295 4.66209 16.2605 4.83679 16.2768C5.07679 16.2997 5.31352 16.3062 5.80822 16.3062C6.30291 16.3062 6.53801 16.2997 6.77964 16.2768C6.95434 16.2605 7.23026 16.2295 7.39189 16.2066C7.55352 16.1838 7.78862 16.1446 7.91434 16.1201C8.04005 16.094 8.21964 16.0531 8.31434 16.0303C8.40903 16.0058 8.56577 15.9601 8.66536 15.9291C8.76332 15.8964 8.91842 15.8409 9.00822 15.8066C9.09801 15.7707 9.24169 15.7054 9.32658 15.6597C9.41148 15.6156 9.54046 15.5372 9.6123 15.4866C9.6825 15.4344 9.7772 15.3495 9.81964 15.2956C9.86373 15.2417 9.90617 15.1715 9.91434 15.1405C9.92413 15.1078 9.93067 14.8172 9.93067 14.4825V13.8833C9.72169 14.0091 9.56985 14.0874 9.4572 14.138C9.34454 14.1886 9.13556 14.2686 8.99189 14.3176C8.84822 14.3666 8.59842 14.4384 8.43679 14.4793C8.27516 14.5184 8.04332 14.5691 7.9225 14.5919C7.80169 14.6131 7.58781 14.6474 7.44903 14.6654C7.31026 14.685 7.07515 14.7111 6.92658 14.7242C6.77801 14.7372 6.46291 14.7552 6.22454 14.7633C5.97475 14.7715 5.61556 14.7715 5.37556 14.7633C5.14699 14.7552 4.87107 14.7405 4.76332 14.7323C4.65556 14.7225 4.4972 14.7062 4.4123 14.698C4.3274 14.6882 4.13638 14.6621 3.98781 14.6393C3.83924 14.6164 3.63026 14.5805 3.5225 14.5593C3.41475 14.5364 3.21556 14.4907 3.08169 14.4548C2.94617 14.4189 2.74046 14.3584 2.62454 14.3193C2.50699 14.2784 2.34536 14.2197 2.26536 14.1854C2.18373 14.1511 2.05964 14.094 1.98781 14.058C1.91597 14.0221 1.81801 13.9682 1.77066 13.9372L1.68413 13.8833L1.68577 14.4989Z"/>
</mask>
<path fill-rule="evenodd" clip-rule="evenodd" d="M12.1429 1.00171C12.4662 1.00171 12.8482 1.00824 12.9919 1.0164C13.1356 1.0262 13.3592 1.04416 13.4898 1.05885C13.6205 1.07191 13.8213 1.09804 13.9388 1.11436C14.0547 1.13232 14.2278 1.16008 14.3225 1.17804C14.4172 1.19599 14.5641 1.22538 14.649 1.24497C14.7339 1.26293 14.889 1.30212 14.9919 1.32987C15.0947 1.35599 15.2858 1.4164 15.4164 1.46048C15.547 1.5062 15.7413 1.58293 15.849 1.63028C15.9568 1.67926 16.1103 1.75926 16.1919 1.80661C16.2719 1.85559 16.3845 1.92906 16.4401 1.96987C16.4972 2.01069 16.5886 2.09069 16.6458 2.1462C16.7013 2.20334 16.7813 2.2964 16.8205 2.35518C16.8596 2.41395 16.9152 2.51681 16.9919 2.7062V12.094L16.9511 12.2001C16.9282 12.2589 16.8841 12.3503 16.8531 12.4025C16.8221 12.4564 16.729 12.5674 16.649 12.6491C16.5674 12.7307 16.4352 12.8417 16.3552 12.8956C16.2735 12.9511 16.1462 13.0278 16.0694 13.0703C15.9927 13.1111 15.849 13.178 15.7511 13.2205C15.6515 13.2629 15.4752 13.3282 15.3592 13.3674C15.2417 13.4066 15.0474 13.4637 14.9266 13.4964C14.8058 13.5274 14.5952 13.5764 14.4613 13.6042C14.3258 13.6303 14.0907 13.6711 13.9388 13.6923C13.7854 13.7152 13.5437 13.7446 13.4001 13.7576C13.2564 13.7723 12.9984 13.7903 12.8286 13.8001C12.6572 13.8082 12.3715 13.8164 12.1919 13.8164C12.0123 13.8164 11.725 13.8082 11.5552 13.8001C11.3837 13.7903 11.1307 13.7723 10.9919 13.7576C10.8531 13.7446 10.7111 13.7282 10.6164 13.7103V14.4613C10.6164 15.0948 10.6115 15.227 10.5903 15.3103C10.5756 15.3642 10.5396 15.4572 10.5086 15.5176C10.4776 15.5797 10.4188 15.6711 10.378 15.7217C10.3372 15.774 10.2735 15.8442 10.236 15.8784C10.1984 15.9144 10.1086 15.9862 10.0368 16.0401C9.96495 16.094 9.83597 16.1772 9.75107 16.2262C9.66617 16.2735 9.50781 16.3503 9.40005 16.396C9.2923 16.4433 9.11924 16.5103 9.01638 16.5446C8.91352 16.5805 8.7372 16.6344 8.62454 16.6654C8.51189 16.6964 8.31597 16.7437 8.18699 16.7715C8.05964 16.7976 7.8425 16.8384 7.70536 16.8613C7.56985 16.8842 7.32169 16.9168 7.15515 16.9348C6.98862 16.9527 6.74209 16.974 6.60822 16.9837C6.47271 16.9919 6.11352 17.0001 5.80822 17.0001C5.50291 17.0001 5.14209 16.9919 5.00822 16.9837C4.87271 16.974 4.62781 16.9527 4.46128 16.9348C4.29475 16.9168 4.04495 16.8842 3.90617 16.8613C3.7674 16.8384 3.56495 16.8009 3.4572 16.778C3.34944 16.7552 3.16495 16.7111 3.04903 16.6817C2.93148 16.6507 2.73066 16.5886 2.60005 16.5446C2.46944 16.5005 2.30128 16.4368 2.22454 16.4042C2.14781 16.3715 2.01556 16.3078 1.93066 16.2621C1.84577 16.2164 1.71026 16.1348 1.62862 16.0793C1.54862 16.0254 1.42781 15.9242 1.35924 15.8572C1.29066 15.7903 1.2074 15.6907 1.17148 15.6368C1.13556 15.5829 1.08495 15.4833 1.00822 15.294L1.00332 11.7593C1.00168 9.14212 1.00495 8.20171 1.01801 8.13477C1.02944 8.08579 1.07026 7.97803 1.11107 7.89804C1.17311 7.77559 1.2123 7.72334 1.34944 7.5862C1.4474 7.48824 1.57801 7.38048 1.66944 7.31844C1.75434 7.26293 1.9274 7.16661 2.05311 7.10457C2.17883 7.04416 2.37638 6.95926 2.49393 6.91844C2.60985 6.87599 2.80577 6.81395 2.92658 6.77804C3.0474 6.74375 3.24658 6.69314 3.3674 6.66702C3.48822 6.63926 3.6972 6.59844 3.83271 6.57722C3.96658 6.55436 4.16577 6.52497 4.27352 6.51191C4.38128 6.49722 4.60495 6.47436 4.77148 6.45803C5.00495 6.43681 5.24005 6.43028 5.80822 6.43028C6.38618 6.42865 6.61148 6.43518 6.86128 6.45803C7.03597 6.47436 7.22373 6.49395 7.2776 6.50048C7.33148 6.50865 7.3772 6.51355 7.37883 6.51191C7.38046 6.51191 7.38536 5.65477 7.39189 2.7062L7.43924 2.59191C7.46536 2.52824 7.5176 2.43028 7.55515 2.3715C7.59271 2.31273 7.66944 2.21804 7.72822 2.15926C7.78536 2.10048 7.87352 2.02212 7.9225 1.98457C7.97148 1.94702 8.08903 1.87028 8.18373 1.81314C8.27842 1.75599 8.43189 1.67599 8.52658 1.63518C8.62128 1.59273 8.76822 1.53395 8.85311 1.5013C8.93801 1.46865 9.10781 1.41314 9.22862 1.37722C9.34944 1.33967 9.56658 1.28416 9.71026 1.2515C9.85393 1.21885 10.0956 1.1715 10.249 1.14702C10.4009 1.12089 10.6654 1.08497 10.8368 1.06538C11.0066 1.04742 11.2384 1.0262 11.3511 1.01804C11.4637 1.0115 11.8196 1.00334 12.1429 1.00171ZM11.098 1.73477C10.9903 1.74457 10.7698 1.77232 10.6082 1.79518C10.4466 1.8164 10.2082 1.85722 10.0776 1.88334C9.94699 1.90946 9.74454 1.95681 9.62862 1.98783C9.51107 2.01885 9.34291 2.06946 9.25311 2.10048C9.16332 2.12987 9.03271 2.17885 8.9625 2.20661C8.89393 2.23436 8.77964 2.28497 8.70944 2.32089C8.64087 2.35518 8.51679 2.42865 8.43679 2.48089C8.35515 2.53477 8.25393 2.61967 8.21148 2.66702C8.1674 2.71599 8.11842 2.78457 8.10046 2.82048C8.08413 2.8564 8.06944 2.90702 8.06944 2.93477C8.06944 2.96089 8.08577 3.0164 8.10536 3.05722C8.12658 3.09804 8.18209 3.1715 8.23271 3.22212C8.28169 3.27273 8.38454 3.35436 8.46128 3.40497C8.53801 3.45395 8.67679 3.53232 8.77148 3.5764C8.86618 3.62212 9.01638 3.68579 9.10618 3.71844C9.19597 3.75273 9.37883 3.80987 9.51434 3.84906C9.64822 3.88824 9.88332 3.94538 10.0368 3.9764C10.1886 4.00906 10.4466 4.05314 10.6082 4.07599C10.7698 4.09885 11.0458 4.12987 11.2205 4.1462C11.4621 4.16742 11.6972 4.17395 12.1919 4.17395C12.6866 4.17395 12.9217 4.16742 13.1633 4.1462C13.338 4.12987 13.6139 4.09885 13.7756 4.07599C13.9372 4.05314 14.1723 4.01395 14.298 3.98783C14.4237 3.96171 14.6033 3.92253 14.698 3.89804C14.7927 3.87355 14.9494 3.82946 15.049 3.79681C15.147 3.76579 15.3005 3.71028 15.387 3.67599C15.4752 3.64008 15.6009 3.5862 15.6645 3.55355C15.7298 3.52089 15.8458 3.45395 15.9225 3.40334C15.9992 3.35436 16.1021 3.27273 16.1511 3.22212C16.2017 3.1715 16.2572 3.09804 16.2784 3.05722C16.298 3.0164 16.3143 2.96089 16.3143 2.93477C16.3143 2.90702 16.298 2.85314 16.2784 2.81232C16.2588 2.7715 16.1984 2.69477 16.1445 2.64089C16.089 2.58538 15.9976 2.51028 15.9388 2.4711C15.8801 2.43355 15.7364 2.35518 15.6205 2.29804C15.5029 2.24089 15.3086 2.16089 15.1878 2.11844C15.067 2.07763 14.8711 2.01722 14.7552 1.9862C14.6376 1.95681 14.4368 1.90946 14.3062 1.88334C14.1756 1.85722 13.9666 1.81967 13.8409 1.80171C13.7152 1.78375 13.5013 1.75763 13.3674 1.74457C13.2319 1.72987 12.987 1.71191 12.8205 1.70212C12.6539 1.69395 12.3454 1.68742 12.1347 1.68742C11.9241 1.68906 11.6482 1.69559 11.5225 1.70375C11.3968 1.71028 11.2058 1.72497 11.098 1.73477ZM8.06781 4.60171C8.06944 5.19926 8.06944 5.21395 8.10536 5.28906C8.12658 5.33314 8.18373 5.40824 8.23271 5.45885C8.28169 5.50946 8.38128 5.58946 8.45311 5.63681C8.52495 5.68253 8.66373 5.76089 8.76332 5.80824C8.86128 5.85559 9.01475 5.92089 9.10128 5.95355C9.18944 5.9862 9.3772 6.04497 9.5176 6.08579C9.65964 6.12824 9.91924 6.18865 10.0939 6.22457C10.2686 6.25885 10.5266 6.30293 10.6654 6.32089C10.8041 6.33885 11.0474 6.36661 11.2041 6.37967C11.3609 6.39436 11.7021 6.40906 11.9633 6.41559C12.2507 6.42048 12.5723 6.41722 12.7796 6.40579C12.9674 6.39599 13.2319 6.3764 13.3674 6.36171C13.5013 6.34865 13.7331 6.31926 13.8817 6.2964C14.0303 6.27355 14.2539 6.23273 14.3796 6.20661C14.5054 6.18048 14.7029 6.13314 14.8205 6.10048C14.9364 6.06783 15.1241 6.00906 15.2368 5.96824C15.3494 5.92742 15.5143 5.86048 15.6041 5.81804C15.6939 5.77559 15.8327 5.69885 15.9143 5.64661C15.9943 5.59273 16.1021 5.50946 16.1511 5.45885C16.2001 5.40824 16.2572 5.33314 16.2784 5.28906C16.3143 5.21395 16.3143 5.20089 16.3143 4.60008V3.98783C16.1054 4.11355 15.9568 4.19028 15.849 4.23926C15.7413 4.28661 15.5421 4.36497 15.4082 4.41069C15.2727 4.45804 15.0376 4.52824 14.8858 4.56742C14.7323 4.60661 14.4874 4.66212 14.3388 4.68987C14.1903 4.71763 13.9584 4.75355 13.8245 4.7715C13.689 4.78946 13.4588 4.81559 13.3103 4.83028C13.1617 4.84334 12.8498 4.8613 12.6164 4.86783C12.3796 4.87599 12.0041 4.87599 11.7674 4.86783C11.5339 4.8613 11.2172 4.84334 11.0654 4.82865C10.9119 4.81395 10.6556 4.78457 10.4939 4.76171C10.3323 4.73885 10.089 4.69804 9.95515 4.67191C9.81964 4.64416 9.61393 4.59681 9.49801 4.56742C9.38046 4.53804 9.19434 4.48416 9.08169 4.44661C8.96903 4.41069 8.78618 4.34375 8.67352 4.2964C8.56087 4.25069 8.42536 4.19028 8.37148 4.16416C8.3176 4.1364 8.22618 4.08579 8.16903 4.0515L8.06617 3.98946L8.06781 4.60171ZM8.07107 6.42865L8.06944 6.63436C8.26536 6.67518 8.42862 6.71436 8.55924 6.74865C8.68985 6.78293 8.90209 6.84824 9.03271 6.89232C9.16332 6.93804 9.35434 7.0115 9.4572 7.05885C9.56005 7.10457 9.71026 7.1813 9.79189 7.22865C9.87189 7.27599 9.9976 7.35926 10.0694 7.41314C10.1413 7.46701 10.2458 7.56171 10.3029 7.62375C10.3601 7.68579 10.4319 7.77559 10.4613 7.8262C10.4923 7.87518 10.5364 7.96661 10.5609 8.03028C10.6017 8.1315 10.6066 8.16579 10.6066 8.34538C10.6082 8.5315 10.6098 8.5462 10.6409 8.55273C10.6588 8.55599 10.7764 8.57069 10.9021 8.58375C11.0278 8.59681 11.2303 8.6164 11.3511 8.62457C11.4719 8.63436 11.7396 8.64579 11.947 8.65232C12.169 8.65885 12.4792 8.65395 12.7062 8.64253C12.9168 8.63273 13.1992 8.61314 13.3347 8.60008C13.4686 8.58701 13.6825 8.56089 13.8082 8.54293C13.9339 8.52497 14.1315 8.49069 14.249 8.46946C14.365 8.44661 14.5707 8.39926 14.7062 8.36497C14.8401 8.32906 15.036 8.27191 15.1388 8.23763C15.2417 8.20171 15.4001 8.14293 15.4898 8.10375C15.5796 8.0662 15.7119 8.00089 15.7837 7.96008C15.8556 7.91926 15.9535 7.85722 15.9992 7.82293C16.0466 7.78865 16.1184 7.72497 16.1592 7.68252C16.2001 7.64008 16.2523 7.56824 16.2735 7.52416L16.3143 7.44252V6.2262C16.2066 6.28987 16.0972 6.34865 15.9992 6.39763C15.9029 6.44661 15.7674 6.51028 15.6972 6.53804C15.6286 6.56579 15.4752 6.6213 15.3592 6.66048C15.2417 6.7013 15.0507 6.75844 14.9347 6.78946C14.8172 6.82048 14.5935 6.8711 14.4368 6.90212C14.2801 6.93314 14.0482 6.97395 13.9225 6.99191C13.7968 7.00987 13.5829 7.03599 13.449 7.04906C13.3135 7.06212 13.0572 7.08171 12.8776 7.09314C12.6703 7.10457 12.3356 7.10783 11.9633 7.1013C11.6401 7.0964 11.2939 7.08497 11.196 7.07518C11.0964 7.06538 10.9135 7.04742 10.7878 7.03273C10.6621 7.01967 10.4417 6.98865 10.298 6.96579C10.1543 6.94293 9.95189 6.90701 9.84903 6.88416C9.74617 6.86293 9.56495 6.82048 9.44903 6.78946C9.33148 6.75844 9.15516 6.7062 9.0572 6.67355C8.9576 6.64089 8.80577 6.58538 8.7176 6.5511C8.63107 6.51518 8.48087 6.44661 8.38291 6.39763C8.28658 6.34865 8.1772 6.28987 8.13964 6.26701L8.07271 6.22293L8.07107 6.42865ZM4.7225 7.16497C4.56577 7.17804 4.33393 7.20579 4.20822 7.22375C4.0825 7.24171 3.88332 7.27436 3.7674 7.29722C3.64985 7.32008 3.46699 7.36089 3.35924 7.38701C3.25148 7.41477 3.07842 7.46212 2.97556 7.49477C2.87271 7.52579 2.71597 7.5813 2.62781 7.61559C2.54128 7.6515 2.40087 7.71355 2.3176 7.75436C2.23597 7.79681 2.11515 7.86538 2.05311 7.90946C1.98944 7.95191 1.89638 8.03028 1.84577 8.08252C1.79515 8.13477 1.73964 8.20987 1.72005 8.25069C1.70209 8.2915 1.68577 8.34212 1.68577 8.36497C1.68577 8.38783 1.70046 8.43681 1.71842 8.47599C1.73638 8.51355 1.78209 8.57885 1.81964 8.61967C1.85883 8.66212 1.93066 8.72742 1.97964 8.76497C2.02862 8.80253 2.12005 8.86293 2.18373 8.90048C2.24577 8.93804 2.37311 9.00171 2.46454 9.04253C2.5576 9.08334 2.72577 9.14865 2.84005 9.18783C2.95597 9.22701 3.13393 9.28089 3.23679 9.30865C3.33964 9.3364 3.53066 9.38212 3.66128 9.40824C3.79189 9.43436 4.02699 9.47518 4.18373 9.49804C4.34046 9.52089 4.59842 9.55191 4.75515 9.56824C4.98373 9.5911 5.19271 9.59763 5.80822 9.59763C6.42373 9.59763 6.63107 9.5911 6.86128 9.56824C7.01801 9.55191 7.27597 9.52089 7.43271 9.49804C7.58944 9.47518 7.82454 9.43436 7.95515 9.40824C8.08577 9.38212 8.27679 9.3364 8.37964 9.30865C8.4825 9.28089 8.66046 9.22701 8.77475 9.18783C8.89067 9.14865 9.05883 9.08334 9.15026 9.04253C9.24332 9.00171 9.36903 8.93804 9.43271 8.90048C9.49475 8.86293 9.58781 8.80253 9.63679 8.76497C9.68577 8.72742 9.7576 8.66212 9.79515 8.61967C9.83434 8.57885 9.88005 8.51355 9.89801 8.47599C9.91597 8.43681 9.92903 8.38783 9.92903 8.36497C9.92903 8.34212 9.91434 8.2915 9.89638 8.25069C9.87679 8.20987 9.81964 8.13477 9.76903 8.08252C9.71842 8.03028 9.62536 7.95191 9.56332 7.90783C9.49964 7.86538 9.3576 7.78538 9.24495 7.7315C9.1323 7.67763 8.9674 7.60579 8.8776 7.57314C8.78781 7.54048 8.62618 7.48824 8.51842 7.45722C8.41067 7.4262 8.22618 7.37885 8.11026 7.3511C7.99271 7.32497 7.79189 7.28416 7.66128 7.26293C7.53066 7.24008 7.29556 7.20742 7.13883 7.1911C6.98209 7.17314 6.74209 7.15028 6.60822 7.14212C6.47271 7.13232 6.19026 7.12253 5.97964 7.11763C5.76903 7.11436 5.46373 7.11599 5.30209 7.12416C5.14046 7.13232 4.87924 7.15028 4.7225 7.16497ZM16.2409 8.50538C16.205 8.52824 16.0972 8.58701 15.9992 8.63599C15.9029 8.68497 15.7674 8.74701 15.6972 8.77477C15.6286 8.80416 15.4752 8.85804 15.3592 8.89885C15.2417 8.93804 15.0507 8.99518 14.9347 9.0262C14.8172 9.05722 14.5935 9.10783 14.4368 9.13885C14.2801 9.1715 14.0482 9.21069 13.9225 9.22865C13.7968 9.24661 13.5829 9.27273 13.449 9.28579C13.3135 9.30048 13.0768 9.31844 12.9217 9.32824C12.7682 9.3364 12.4368 9.34457 12.187 9.34457C11.9388 9.34457 11.6172 9.33804 11.4735 9.32824C11.3298 9.32008 11.0915 9.30048 10.9429 9.28742C10.7943 9.27273 10.6605 9.25803 10.6441 9.25477C10.618 9.24661 10.6164 9.29232 10.6115 10.0123L10.6082 10.7797C10.6833 10.7927 10.8058 10.8074 10.9266 10.8205C11.0474 10.8335 11.2613 10.8531 11.4001 10.8613C11.5388 10.8711 11.7821 10.8825 11.9388 10.8874C12.0956 10.8923 12.4041 10.8891 12.6245 10.8809C12.845 10.8711 13.1454 10.8515 13.2939 10.8368C13.4425 10.8237 13.6662 10.7976 13.7919 10.7797C13.9176 10.7617 14.1494 10.7225 14.3062 10.6899C14.4629 10.6589 14.6866 10.6066 14.8041 10.5756C14.9201 10.5429 15.1013 10.4874 15.2041 10.4515C15.307 10.4156 15.4833 10.3421 15.596 10.2882C15.7086 10.236 15.8588 10.1527 15.9307 10.1054C16.0025 10.0564 16.1054 9.97151 16.1592 9.91436C16.2147 9.85559 16.2703 9.77722 16.2866 9.7364C16.3127 9.6711 16.3143 9.60089 16.3111 9.06375L16.3062 8.4662L16.2409 8.50538ZM1.71842 10.7111C1.73638 10.7486 1.79026 10.8205 1.83597 10.8711C1.88332 10.9217 1.98781 11.0066 2.06944 11.0605C2.14944 11.1144 2.28169 11.1911 2.36332 11.2303C2.44332 11.2678 2.58046 11.3266 2.66536 11.3593C2.75026 11.3919 2.91189 11.4474 3.02454 11.4817C3.1372 11.516 3.34291 11.5699 3.48169 11.6025C3.62046 11.6352 3.84413 11.6793 3.97964 11.7021C4.11352 11.7233 4.35679 11.7576 4.51842 11.774C4.68005 11.7919 4.93311 11.8148 5.08169 11.8246C5.23026 11.8344 5.55679 11.8409 5.80822 11.8409C6.05964 11.8409 6.38618 11.8344 6.53475 11.8246C6.68332 11.8148 6.93638 11.7935 7.09801 11.7756C7.25964 11.7576 7.50128 11.7233 7.63679 11.7021C7.77067 11.6793 7.96658 11.6417 8.06944 11.6189C8.1723 11.596 8.34536 11.5519 8.45311 11.5225C8.56087 11.4931 8.74373 11.4344 8.86128 11.3919C8.9772 11.3495 9.14699 11.2809 9.23679 11.2368C9.32658 11.1944 9.46536 11.1144 9.54699 11.0605C9.62699 11.0066 9.73311 10.9217 9.77883 10.8711C9.82617 10.8205 9.88005 10.7486 9.89801 10.7111C9.9274 10.6458 9.92903 10.605 9.93067 10.0335C9.93067 9.69885 9.9274 9.42457 9.9225 9.42457C9.9176 9.42457 9.88332 9.44416 9.84413 9.46865C9.80658 9.49314 9.69883 9.55028 9.60413 9.59763C9.50944 9.64497 9.37393 9.70702 9.30209 9.7364C9.23026 9.76416 9.08658 9.8164 8.98373 9.85232C8.88087 9.88661 8.67026 9.94865 8.51842 9.98783C8.36495 10.027 8.12332 10.0825 7.97964 10.1103C7.83597 10.1364 7.61556 10.174 7.48985 10.1919C7.36413 10.2099 7.14373 10.2344 7.00005 10.2491C6.85638 10.2621 6.52985 10.2817 6.27352 10.2931C5.91107 10.3095 5.70373 10.3095 5.33475 10.2931C5.07352 10.2833 4.7176 10.2589 4.54291 10.2409C4.36822 10.2229 4.12495 10.1919 4.00413 10.174C3.88332 10.156 3.6776 10.1184 3.54699 10.0923C3.41638 10.0662 3.2074 10.0189 3.08169 9.9862C2.95597 9.95355 2.73883 9.88824 2.60005 9.84089C2.46128 9.79191 2.25883 9.71355 2.15107 9.66457C2.04332 9.61559 1.89801 9.54212 1.82781 9.5013C1.75924 9.45885 1.69883 9.42457 1.69393 9.42457C1.68903 9.42457 1.68577 9.69885 1.68577 10.0335C1.68577 10.605 1.68903 10.6458 1.71842 10.7111ZM16.2082 10.7601C16.1543 10.7911 16.0286 10.8564 15.9307 10.9037C15.8311 10.9511 15.6743 11.018 15.5796 11.054C15.485 11.0899 15.3233 11.1454 15.2205 11.178C15.1176 11.2107 14.9119 11.2662 14.7633 11.3005C14.6147 11.3364 14.4123 11.3805 14.3143 11.3984C14.2147 11.4164 14.0319 11.4474 13.9062 11.4654C13.7805 11.4833 13.5633 11.5078 13.4245 11.5225C13.2858 11.5356 13.0458 11.5535 12.8939 11.5633C12.7405 11.5731 12.4254 11.5797 12.1919 11.5797C11.9584 11.5797 11.6417 11.5731 11.4898 11.5633C11.3364 11.5535 11.098 11.5356 10.9592 11.5225C10.8205 11.5095 10.6866 11.4948 10.6605 11.4899L10.6164 11.4817L10.6082 13.0148C10.6833 13.0278 10.8123 13.0425 10.9429 13.0572C11.0735 13.0703 11.2939 13.0899 11.4327 13.0997C11.5715 13.1095 11.9176 13.116 12.2001 13.116C12.4825 13.116 12.8286 13.1078 12.9674 13.098C13.1062 13.0882 13.3494 13.067 13.5062 13.0491C13.6629 13.0311 13.9013 12.9984 14.0368 12.9756C14.1707 12.9527 14.3813 12.9119 14.5021 12.8842C14.6229 12.8564 14.8221 12.8042 14.9429 12.7682C15.0637 12.734 15.2482 12.6703 15.3511 12.6295C15.4539 12.5886 15.5976 12.5266 15.6694 12.4907C15.7413 12.4548 15.8588 12.3862 15.9307 12.3389C16.0025 12.2915 16.1054 12.2066 16.1592 12.1495C16.2147 12.0907 16.2703 12.0123 16.2866 11.9715C16.3127 11.9062 16.3143 11.836 16.3111 11.3005L16.3062 10.7013L16.2082 10.7601ZM1.71842 12.9478C1.73638 12.9854 1.79026 13.0589 1.83597 13.1095C1.88332 13.1584 1.98128 13.2401 2.05311 13.2874C2.12495 13.3348 2.27515 13.418 2.38781 13.4719C2.50046 13.5258 2.66862 13.5976 2.76332 13.6303C2.85801 13.6646 3.01964 13.7168 3.1225 13.7462C3.22536 13.7772 3.42781 13.8262 3.57148 13.8572C3.71515 13.8882 3.92413 13.9291 4.03679 13.947C4.14944 13.965 4.37311 13.9944 4.53475 14.0123C4.69638 14.0303 4.97556 14.0531 5.15515 14.0646C5.3576 14.076 5.6874 14.0793 6.02046 14.0744C6.31597 14.0678 6.68005 14.0531 6.82862 14.0384C6.9772 14.0254 7.2074 13.9976 7.34291 13.9797C7.47679 13.9617 7.6874 13.9274 7.80822 13.9062C7.92903 13.8833 8.14618 13.8344 8.28985 13.7984C8.43352 13.7609 8.6572 13.6956 8.78781 13.6515C8.91842 13.6074 9.1274 13.5209 9.25311 13.4589C9.37883 13.3984 9.54046 13.3038 9.6123 13.2515C9.68413 13.1976 9.77066 13.1209 9.80495 13.0817C9.8376 13.0425 9.87842 12.9837 9.89475 12.9527C9.91924 12.9021 9.9225 12.8237 9.92577 12.2784C9.92903 11.9389 9.92577 11.6629 9.9176 11.6629C9.91107 11.6629 9.86536 11.6874 9.81638 11.7184C9.7674 11.7478 9.67107 11.8001 9.60413 11.8344C9.5372 11.8686 9.38536 11.934 9.26944 11.9813C9.15189 12.027 8.9723 12.0923 8.86944 12.125C8.76658 12.156 8.59679 12.205 8.49393 12.2311C8.39107 12.2589 8.19515 12.3029 8.06128 12.3291C7.92577 12.3568 7.6874 12.3976 7.53066 12.4205C7.37393 12.4417 7.12413 12.4727 6.97556 12.4858C6.82699 12.5005 6.52658 12.5184 6.30618 12.5299C6.08413 12.5397 5.74618 12.5429 5.54699 12.5364C5.34944 12.5315 5.07679 12.5184 4.94291 12.5103C4.8074 12.5005 4.56577 12.4793 4.40413 12.4613C4.2425 12.4433 3.98128 12.4058 3.82454 12.3797C3.66781 12.3519 3.42781 12.3046 3.29393 12.2735C3.15842 12.2425 2.93801 12.1838 2.80413 12.1429C2.66862 12.1005 2.47434 12.0335 2.37148 11.9927C2.26862 11.9519 2.10209 11.8784 2.00413 11.8295C1.90454 11.7805 1.79679 11.7217 1.7625 11.7005C1.72985 11.6793 1.69883 11.6629 1.69393 11.6629C1.68903 11.6629 1.68577 11.9356 1.68577 12.2703C1.68577 12.8417 1.68903 12.8825 1.71842 12.9478ZM1.68577 14.4989C1.68577 15.0719 1.68903 15.1193 1.71679 15.1813C1.73475 15.2172 1.78373 15.2858 1.82781 15.3331C1.87026 15.3821 1.97148 15.4654 2.05311 15.5193C2.13311 15.5731 2.2572 15.645 2.32577 15.6809C2.39597 15.7152 2.51026 15.7674 2.57883 15.7952C2.64903 15.8229 2.77964 15.8703 2.86944 15.9013C2.95924 15.9323 3.1274 15.9829 3.24495 16.0123C3.36087 16.0433 3.56332 16.0907 3.69393 16.1168C3.82454 16.1446 4.06291 16.1854 4.22454 16.2066C4.38617 16.2295 4.66209 16.2605 4.83679 16.2768C5.07679 16.2997 5.31352 16.3062 5.80822 16.3062C6.30291 16.3062 6.53801 16.2997 6.77964 16.2768C6.95434 16.2605 7.23026 16.2295 7.39189 16.2066C7.55352 16.1838 7.78862 16.1446 7.91434 16.1201C8.04005 16.094 8.21964 16.0531 8.31434 16.0303C8.40903 16.0058 8.56577 15.9601 8.66536 15.9291C8.76332 15.8964 8.91842 15.8409 9.00822 15.8066C9.09801 15.7707 9.24169 15.7054 9.32658 15.6597C9.41148 15.6156 9.54046 15.5372 9.6123 15.4866C9.6825 15.4344 9.7772 15.3495 9.81964 15.2956C9.86373 15.2417 9.90617 15.1715 9.91434 15.1405C9.92413 15.1078 9.93067 14.8172 9.93067 14.4825V13.8833C9.72169 14.0091 9.56985 14.0874 9.4572 14.138C9.34454 14.1886 9.13556 14.2686 8.99189 14.3176C8.84822 14.3666 8.59842 14.4384 8.43679 14.4793C8.27516 14.5184 8.04332 14.5691 7.9225 14.5919C7.80169 14.6131 7.58781 14.6474 7.44903 14.6654C7.31026 14.685 7.07515 14.7111 6.92658 14.7242C6.77801 14.7372 6.46291 14.7552 6.22454 14.7633C5.97475 14.7715 5.61556 14.7715 5.37556 14.7633C5.14699 14.7552 4.87107 14.7405 4.76332 14.7323C4.65556 14.7225 4.4972 14.7062 4.4123 14.698C4.3274 14.6882 4.13638 14.6621 3.98781 14.6393C3.83924 14.6164 3.63026 14.5805 3.5225 14.5593C3.41475 14.5364 3.21556 14.4907 3.08169 14.4548C2.94617 14.4189 2.74046 14.3584 2.62454 14.3193C2.50699 14.2784 2.34536 14.2197 2.26536 14.1854C2.18373 14.1511 2.05964 14.094 1.98781 14.058C1.91597 14.0221 1.81801 13.9682 1.77066 13.9372L1.68413 13.8833L1.68577 14.4989Z" fill="#078C61"/>
<path fill-rule="evenodd" clip-rule="evenodd" d="M12.1429 1.00171C12.4662 1.00171 12.8482 1.00824 12.9919 1.0164C13.1356 1.0262 13.3592 1.04416 13.4898 1.05885C13.6205 1.07191 13.8213 1.09804 13.9388 1.11436C14.0547 1.13232 14.2278 1.16008 14.3225 1.17804C14.4172 1.19599 14.5641 1.22538 14.649 1.24497C14.7339 1.26293 14.889 1.30212 14.9919 1.32987C15.0947 1.35599 15.2858 1.4164 15.4164 1.46048C15.547 1.5062 15.7413 1.58293 15.849 1.63028C15.9568 1.67926 16.1103 1.75926 16.1919 1.80661C16.2719 1.85559 16.3845 1.92906 16.4401 1.96987C16.4972 2.01069 16.5886 2.09069 16.6458 2.1462C16.7013 2.20334 16.7813 2.2964 16.8205 2.35518C16.8596 2.41395 16.9152 2.51681 16.9919 2.7062V12.094L16.9511 12.2001C16.9282 12.2589 16.8841 12.3503 16.8531 12.4025C16.8221 12.4564 16.729 12.5674 16.649 12.6491C16.5674 12.7307 16.4352 12.8417 16.3552 12.8956C16.2735 12.9511 16.1462 13.0278 16.0694 13.0703C15.9927 13.1111 15.849 13.178 15.7511 13.2205C15.6515 13.2629 15.4752 13.3282 15.3592 13.3674C15.2417 13.4066 15.0474 13.4637 14.9266 13.4964C14.8058 13.5274 14.5952 13.5764 14.4613 13.6042C14.3258 13.6303 14.0907 13.6711 13.9388 13.6923C13.7854 13.7152 13.5437 13.7446 13.4001 13.7576C13.2564 13.7723 12.9984 13.7903 12.8286 13.8001C12.6572 13.8082 12.3715 13.8164 12.1919 13.8164C12.0123 13.8164 11.725 13.8082 11.5552 13.8001C11.3837 13.7903 11.1307 13.7723 10.9919 13.7576C10.8531 13.7446 10.7111 13.7282 10.6164 13.7103V14.4613C10.6164 15.0948 10.6115 15.227 10.5903 15.3103C10.5756 15.3642 10.5396 15.4572 10.5086 15.5176C10.4776 15.5797 10.4188 15.6711 10.378 15.7217C10.3372 15.774 10.2735 15.8442 10.236 15.8784C10.1984 15.9144 10.1086 15.9862 10.0368 16.0401C9.96495 16.094 9.83597 16.1772 9.75107 16.2262C9.66617 16.2735 9.50781 16.3503 9.40005 16.396C9.2923 16.4433 9.11924 16.5103 9.01638 16.5446C8.91352 16.5805 8.7372 16.6344 8.62454 16.6654C8.51189 16.6964 8.31597 16.7437 8.18699 16.7715C8.05964 16.7976 7.8425 16.8384 7.70536 16.8613C7.56985 16.8842 7.32169 16.9168 7.15515 16.9348C6.98862 16.9527 6.74209 16.974 6.60822 16.9837C6.47271 16.9919 6.11352 17.0001 5.80822 17.0001C5.50291 17.0001 5.14209 16.9919 5.00822 16.9837C4.87271 16.974 4.62781 16.9527 4.46128 16.9348C4.29475 16.9168 4.04495 16.8842 3.90617 16.8613C3.7674 16.8384 3.56495 16.8009 3.4572 16.778C3.34944 16.7552 3.16495 16.7111 3.04903 16.6817C2.93148 16.6507 2.73066 16.5886 2.60005 16.5446C2.46944 16.5005 2.30128 16.4368 2.22454 16.4042C2.14781 16.3715 2.01556 16.3078 1.93066 16.2621C1.84577 16.2164 1.71026 16.1348 1.62862 16.0793C1.54862 16.0254 1.42781 15.9242 1.35924 15.8572C1.29066 15.7903 1.2074 15.6907 1.17148 15.6368C1.13556 15.5829 1.08495 15.4833 1.00822 15.294L1.00332 11.7593C1.00168 9.14212 1.00495 8.20171 1.01801 8.13477C1.02944 8.08579 1.07026 7.97803 1.11107 7.89804C1.17311 7.77559 1.2123 7.72334 1.34944 7.5862C1.4474 7.48824 1.57801 7.38048 1.66944 7.31844C1.75434 7.26293 1.9274 7.16661 2.05311 7.10457C2.17883 7.04416 2.37638 6.95926 2.49393 6.91844C2.60985 6.87599 2.80577 6.81395 2.92658 6.77804C3.0474 6.74375 3.24658 6.69314 3.3674 6.66702C3.48822 6.63926 3.6972 6.59844 3.83271 6.57722C3.96658 6.55436 4.16577 6.52497 4.27352 6.51191C4.38128 6.49722 4.60495 6.47436 4.77148 6.45803C5.00495 6.43681 5.24005 6.43028 5.80822 6.43028C6.38618 6.42865 6.61148 6.43518 6.86128 6.45803C7.03597 6.47436 7.22373 6.49395 7.2776 6.50048C7.33148 6.50865 7.3772 6.51355 7.37883 6.51191C7.38046 6.51191 7.38536 5.65477 7.39189 2.7062L7.43924 2.59191C7.46536 2.52824 7.5176 2.43028 7.55515 2.3715C7.59271 2.31273 7.66944 2.21804 7.72822 2.15926C7.78536 2.10048 7.87352 2.02212 7.9225 1.98457C7.97148 1.94702 8.08903 1.87028 8.18373 1.81314C8.27842 1.75599 8.43189 1.67599 8.52658 1.63518C8.62128 1.59273 8.76822 1.53395 8.85311 1.5013C8.93801 1.46865 9.10781 1.41314 9.22862 1.37722C9.34944 1.33967 9.56658 1.28416 9.71026 1.2515C9.85393 1.21885 10.0956 1.1715 10.249 1.14702C10.4009 1.12089 10.6654 1.08497 10.8368 1.06538C11.0066 1.04742 11.2384 1.0262 11.3511 1.01804C11.4637 1.0115 11.8196 1.00334 12.1429 1.00171ZM11.098 1.73477C10.9903 1.74457 10.7698 1.77232 10.6082 1.79518C10.4466 1.8164 10.2082 1.85722 10.0776 1.88334C9.94699 1.90946 9.74454 1.95681 9.62862 1.98783C9.51107 2.01885 9.34291 2.06946 9.25311 2.10048C9.16332 2.12987 9.03271 2.17885 8.9625 2.20661C8.89393 2.23436 8.77964 2.28497 8.70944 2.32089C8.64087 2.35518 8.51679 2.42865 8.43679 2.48089C8.35515 2.53477 8.25393 2.61967 8.21148 2.66702C8.1674 2.71599 8.11842 2.78457 8.10046 2.82048C8.08413 2.8564 8.06944 2.90702 8.06944 2.93477C8.06944 2.96089 8.08577 3.0164 8.10536 3.05722C8.12658 3.09804 8.18209 3.1715 8.23271 3.22212C8.28169 3.27273 8.38454 3.35436 8.46128 3.40497C8.53801 3.45395 8.67679 3.53232 8.77148 3.5764C8.86618 3.62212 9.01638 3.68579 9.10618 3.71844C9.19597 3.75273 9.37883 3.80987 9.51434 3.84906C9.64822 3.88824 9.88332 3.94538 10.0368 3.9764C10.1886 4.00906 10.4466 4.05314 10.6082 4.07599C10.7698 4.09885 11.0458 4.12987 11.2205 4.1462C11.4621 4.16742 11.6972 4.17395 12.1919 4.17395C12.6866 4.17395 12.9217 4.16742 13.1633 4.1462C13.338 4.12987 13.6139 4.09885 13.7756 4.07599C13.9372 4.05314 14.1723 4.01395 14.298 3.98783C14.4237 3.96171 14.6033 3.92253 14.698 3.89804C14.7927 3.87355 14.9494 3.82946 15.049 3.79681C15.147 3.76579 15.3005 3.71028 15.387 3.67599C15.4752 3.64008 15.6009 3.5862 15.6645 3.55355C15.7298 3.52089 15.8458 3.45395 15.9225 3.40334C15.9992 3.35436 16.1021 3.27273 16.1511 3.22212C16.2017 3.1715 16.2572 3.09804 16.2784 3.05722C16.298 3.0164 16.3143 2.96089 16.3143 2.93477C16.3143 2.90702 16.298 2.85314 16.2784 2.81232C16.2588 2.7715 16.1984 2.69477 16.1445 2.64089C16.089 2.58538 15.9976 2.51028 15.9388 2.4711C15.8801 2.43355 15.7364 2.35518 15.6205 2.29804C15.5029 2.24089 15.3086 2.16089 15.1878 2.11844C15.067 2.07763 14.8711 2.01722 14.7552 1.9862C14.6376 1.95681 14.4368 1.90946 14.3062 1.88334C14.1756 1.85722 13.9666 1.81967 13.8409 1.80171C13.7152 1.78375 13.5013 1.75763 13.3674 1.74457C13.2319 1.72987 12.987 1.71191 12.8205 1.70212C12.6539 1.69395 12.3454 1.68742 12.1347 1.68742C11.9241 1.68906 11.6482 1.69559 11.5225 1.70375C11.3968 1.71028 11.2058 1.72497 11.098 1.73477ZM8.06781 4.60171C8.06944 5.19926 8.06944 5.21395 8.10536 5.28906C8.12658 5.33314 8.18373 5.40824 8.23271 5.45885C8.28169 5.50946 8.38128 5.58946 8.45311 5.63681C8.52495 5.68253 8.66373 5.76089 8.76332 5.80824C8.86128 5.85559 9.01475 5.92089 9.10128 5.95355C9.18944 5.9862 9.3772 6.04497 9.5176 6.08579C9.65964 6.12824 9.91924 6.18865 10.0939 6.22457C10.2686 6.25885 10.5266 6.30293 10.6654 6.32089C10.8041 6.33885 11.0474 6.36661 11.2041 6.37967C11.3609 6.39436 11.7021 6.40906 11.9633 6.41559C12.2507 6.42048 12.5723 6.41722 12.7796 6.40579C12.9674 6.39599 13.2319 6.3764 13.3674 6.36171C13.5013 6.34865 13.7331 6.31926 13.8817 6.2964C14.0303 6.27355 14.2539 6.23273 14.3796 6.20661C14.5054 6.18048 14.7029 6.13314 14.8205 6.10048C14.9364 6.06783 15.1241 6.00906 15.2368 5.96824C15.3494 5.92742 15.5143 5.86048 15.6041 5.81804C15.6939 5.77559 15.8327 5.69885 15.9143 5.64661C15.9943 5.59273 16.1021 5.50946 16.1511 5.45885C16.2001 5.40824 16.2572 5.33314 16.2784 5.28906C16.3143 5.21395 16.3143 5.20089 16.3143 4.60008V3.98783C16.1054 4.11355 15.9568 4.19028 15.849 4.23926C15.7413 4.28661 15.5421 4.36497 15.4082 4.41069C15.2727 4.45804 15.0376 4.52824 14.8858 4.56742C14.7323 4.60661 14.4874 4.66212 14.3388 4.68987C14.1903 4.71763 13.9584 4.75355 13.8245 4.7715C13.689 4.78946 13.4588 4.81559 13.3103 4.83028C13.1617 4.84334 12.8498 4.8613 12.6164 4.86783C12.3796 4.87599 12.0041 4.87599 11.7674 4.86783C11.5339 4.8613 11.2172 4.84334 11.0654 4.82865C10.9119 4.81395 10.6556 4.78457 10.4939 4.76171C10.3323 4.73885 10.089 4.69804 9.95515 4.67191C9.81964 4.64416 9.61393 4.59681 9.49801 4.56742C9.38046 4.53804 9.19434 4.48416 9.08169 4.44661C8.96903 4.41069 8.78618 4.34375 8.67352 4.2964C8.56087 4.25069 8.42536 4.19028 8.37148 4.16416C8.3176 4.1364 8.22618 4.08579 8.16903 4.0515L8.06617 3.98946L8.06781 4.60171ZM8.07107 6.42865L8.06944 6.63436C8.26536 6.67518 8.42862 6.71436 8.55924 6.74865C8.68985 6.78293 8.90209 6.84824 9.03271 6.89232C9.16332 6.93804 9.35434 7.0115 9.4572 7.05885C9.56005 7.10457 9.71026 7.1813 9.79189 7.22865C9.87189 7.27599 9.9976 7.35926 10.0694 7.41314C10.1413 7.46701 10.2458 7.56171 10.3029 7.62375C10.3601 7.68579 10.4319 7.77559 10.4613 7.8262C10.4923 7.87518 10.5364 7.96661 10.5609 8.03028C10.6017 8.1315 10.6066 8.16579 10.6066 8.34538C10.6082 8.5315 10.6098 8.5462 10.6409 8.55273C10.6588 8.55599 10.7764 8.57069 10.9021 8.58375C11.0278 8.59681 11.2303 8.6164 11.3511 8.62457C11.4719 8.63436 11.7396 8.64579 11.947 8.65232C12.169 8.65885 12.4792 8.65395 12.7062 8.64253C12.9168 8.63273 13.1992 8.61314 13.3347 8.60008C13.4686 8.58701 13.6825 8.56089 13.8082 8.54293C13.9339 8.52497 14.1315 8.49069 14.249 8.46946C14.365 8.44661 14.5707 8.39926 14.7062 8.36497C14.8401 8.32906 15.036 8.27191 15.1388 8.23763C15.2417 8.20171 15.4001 8.14293 15.4898 8.10375C15.5796 8.0662 15.7119 8.00089 15.7837 7.96008C15.8556 7.91926 15.9535 7.85722 15.9992 7.82293C16.0466 7.78865 16.1184 7.72497 16.1592 7.68252C16.2001 7.64008 16.2523 7.56824 16.2735 7.52416L16.3143 7.44252V6.2262C16.2066 6.28987 16.0972 6.34865 15.9992 6.39763C15.9029 6.44661 15.7674 6.51028 15.6972 6.53804C15.6286 6.56579 15.4752 6.6213 15.3592 6.66048C15.2417 6.7013 15.0507 6.75844 14.9347 6.78946C14.8172 6.82048 14.5935 6.8711 14.4368 6.90212C14.2801 6.93314 14.0482 6.97395 13.9225 6.99191C13.7968 7.00987 13.5829 7.03599 13.449 7.04906C13.3135 7.06212 13.0572 7.08171 12.8776 7.09314C12.6703 7.10457 12.3356 7.10783 11.9633 7.1013C11.6401 7.0964 11.2939 7.08497 11.196 7.07518C11.0964 7.06538 10.9135 7.04742 10.7878 7.03273C10.6621 7.01967 10.4417 6.98865 10.298 6.96579C10.1543 6.94293 9.95189 6.90701 9.84903 6.88416C9.74617 6.86293 9.56495 6.82048 9.44903 6.78946C9.33148 6.75844 9.15516 6.7062 9.0572 6.67355C8.9576 6.64089 8.80577 6.58538 8.7176 6.5511C8.63107 6.51518 8.48087 6.44661 8.38291 6.39763C8.28658 6.34865 8.1772 6.28987 8.13964 6.26701L8.07271 6.22293L8.07107 6.42865ZM4.7225 7.16497C4.56577 7.17804 4.33393 7.20579 4.20822 7.22375C4.0825 7.24171 3.88332 7.27436 3.7674 7.29722C3.64985 7.32008 3.46699 7.36089 3.35924 7.38701C3.25148 7.41477 3.07842 7.46212 2.97556 7.49477C2.87271 7.52579 2.71597 7.5813 2.62781 7.61559C2.54128 7.6515 2.40087 7.71355 2.3176 7.75436C2.23597 7.79681 2.11515 7.86538 2.05311 7.90946C1.98944 7.95191 1.89638 8.03028 1.84577 8.08252C1.79515 8.13477 1.73964 8.20987 1.72005 8.25069C1.70209 8.2915 1.68577 8.34212 1.68577 8.36497C1.68577 8.38783 1.70046 8.43681 1.71842 8.47599C1.73638 8.51355 1.78209 8.57885 1.81964 8.61967C1.85883 8.66212 1.93066 8.72742 1.97964 8.76497C2.02862 8.80253 2.12005 8.86293 2.18373 8.90048C2.24577 8.93804 2.37311 9.00171 2.46454 9.04253C2.5576 9.08334 2.72577 9.14865 2.84005 9.18783C2.95597 9.22701 3.13393 9.28089 3.23679 9.30865C3.33964 9.3364 3.53066 9.38212 3.66128 9.40824C3.79189 9.43436 4.02699 9.47518 4.18373 9.49804C4.34046 9.52089 4.59842 9.55191 4.75515 9.56824C4.98373 9.5911 5.19271 9.59763 5.80822 9.59763C6.42373 9.59763 6.63107 9.5911 6.86128 9.56824C7.01801 9.55191 7.27597 9.52089 7.43271 9.49804C7.58944 9.47518 7.82454 9.43436 7.95515 9.40824C8.08577 9.38212 8.27679 9.3364 8.37964 9.30865C8.4825 9.28089 8.66046 9.22701 8.77475 9.18783C8.89067 9.14865 9.05883 9.08334 9.15026 9.04253C9.24332 9.00171 9.36903 8.93804 9.43271 8.90048C9.49475 8.86293 9.58781 8.80253 9.63679 8.76497C9.68577 8.72742 9.7576 8.66212 9.79515 8.61967C9.83434 8.57885 9.88005 8.51355 9.89801 8.47599C9.91597 8.43681 9.92903 8.38783 9.92903 8.36497C9.92903 8.34212 9.91434 8.2915 9.89638 8.25069C9.87679 8.20987 9.81964 8.13477 9.76903 8.08252C9.71842 8.03028 9.62536 7.95191 9.56332 7.90783C9.49964 7.86538 9.3576 7.78538 9.24495 7.7315C9.1323 7.67763 8.9674 7.60579 8.8776 7.57314C8.78781 7.54048 8.62618 7.48824 8.51842 7.45722C8.41067 7.4262 8.22618 7.37885 8.11026 7.3511C7.99271 7.32497 7.79189 7.28416 7.66128 7.26293C7.53066 7.24008 7.29556 7.20742 7.13883 7.1911C6.98209 7.17314 6.74209 7.15028 6.60822 7.14212C6.47271 7.13232 6.19026 7.12253 5.97964 7.11763C5.76903 7.11436 5.46373 7.11599 5.30209 7.12416C5.14046 7.13232 4.87924 7.15028 4.7225 7.16497ZM16.2409 8.50538C16.205 8.52824 16.0972 8.58701 15.9992 8.63599C15.9029 8.68497 15.7674 8.74701 15.6972 8.77477C15.6286 8.80416 15.4752 8.85804 15.3592 8.89885C15.2417 8.93804 15.0507 8.99518 14.9347 9.0262C14.8172 9.05722 14.5935 9.10783 14.4368 9.13885C14.2801 9.1715 14.0482 9.21069 13.9225 9.22865C13.7968 9.24661 13.5829 9.27273 13.449 9.28579C13.3135 9.30048 13.0768 9.31844 12.9217 9.32824C12.7682 9.3364 12.4368 9.34457 12.187 9.34457C11.9388 9.34457 11.6172 9.33804 11.4735 9.32824C11.3298 9.32008 11.0915 9.30048 10.9429 9.28742C10.7943 9.27273 10.6605 9.25803 10.6441 9.25477C10.618 9.24661 10.6164 9.29232 10.6115 10.0123L10.6082 10.7797C10.6833 10.7927 10.8058 10.8074 10.9266 10.8205C11.0474 10.8335 11.2613 10.8531 11.4001 10.8613C11.5388 10.8711 11.7821 10.8825 11.9388 10.8874C12.0956 10.8923 12.4041 10.8891 12.6245 10.8809C12.845 10.8711 13.1454 10.8515 13.2939 10.8368C13.4425 10.8237 13.6662 10.7976 13.7919 10.7797C13.9176 10.7617 14.1494 10.7225 14.3062 10.6899C14.4629 10.6589 14.6866 10.6066 14.8041 10.5756C14.9201 10.5429 15.1013 10.4874 15.2041 10.4515C15.307 10.4156 15.4833 10.3421 15.596 10.2882C15.7086 10.236 15.8588 10.1527 15.9307 10.1054C16.0025 10.0564 16.1054 9.97151 16.1592 9.91436C16.2147 9.85559 16.2703 9.77722 16.2866 9.7364C16.3127 9.6711 16.3143 9.60089 16.3111 9.06375L16.3062 8.4662L16.2409 8.50538ZM1.71842 10.7111C1.73638 10.7486 1.79026 10.8205 1.83597 10.8711C1.88332 10.9217 1.98781 11.0066 2.06944 11.0605C2.14944 11.1144 2.28169 11.1911 2.36332 11.2303C2.44332 11.2678 2.58046 11.3266 2.66536 11.3593C2.75026 11.3919 2.91189 11.4474 3.02454 11.4817C3.1372 11.516 3.34291 11.5699 3.48169 11.6025C3.62046 11.6352 3.84413 11.6793 3.97964 11.7021C4.11352 11.7233 4.35679 11.7576 4.51842 11.774C4.68005 11.7919 4.93311 11.8148 5.08169 11.8246C5.23026 11.8344 5.55679 11.8409 5.80822 11.8409C6.05964 11.8409 6.38618 11.8344 6.53475 11.8246C6.68332 11.8148 6.93638 11.7935 7.09801 11.7756C7.25964 11.7576 7.50128 11.7233 7.63679 11.7021C7.77067 11.6793 7.96658 11.6417 8.06944 11.6189C8.1723 11.596 8.34536 11.5519 8.45311 11.5225C8.56087 11.4931 8.74373 11.4344 8.86128 11.3919C8.9772 11.3495 9.14699 11.2809 9.23679 11.2368C9.32658 11.1944 9.46536 11.1144 9.54699 11.0605C9.62699 11.0066 9.73311 10.9217 9.77883 10.8711C9.82617 10.8205 9.88005 10.7486 9.89801 10.7111C9.9274 10.6458 9.92903 10.605 9.93067 10.0335C9.93067 9.69885 9.9274 9.42457 9.9225 9.42457C9.9176 9.42457 9.88332 9.44416 9.84413 9.46865C9.80658 9.49314 9.69883 9.55028 9.60413 9.59763C9.50944 9.64497 9.37393 9.70702 9.30209 9.7364C9.23026 9.76416 9.08658 9.8164 8.98373 9.85232C8.88087 9.88661 8.67026 9.94865 8.51842 9.98783C8.36495 10.027 8.12332 10.0825 7.97964 10.1103C7.83597 10.1364 7.61556 10.174 7.48985 10.1919C7.36413 10.2099 7.14373 10.2344 7.00005 10.2491C6.85638 10.2621 6.52985 10.2817 6.27352 10.2931C5.91107 10.3095 5.70373 10.3095 5.33475 10.2931C5.07352 10.2833 4.7176 10.2589 4.54291 10.2409C4.36822 10.2229 4.12495 10.1919 4.00413 10.174C3.88332 10.156 3.6776 10.1184 3.54699 10.0923C3.41638 10.0662 3.2074 10.0189 3.08169 9.9862C2.95597 9.95355 2.73883 9.88824 2.60005 9.84089C2.46128 9.79191 2.25883 9.71355 2.15107 9.66457C2.04332 9.61559 1.89801 9.54212 1.82781 9.5013C1.75924 9.45885 1.69883 9.42457 1.69393 9.42457C1.68903 9.42457 1.68577 9.69885 1.68577 10.0335C1.68577 10.605 1.68903 10.6458 1.71842 10.7111ZM16.2082 10.7601C16.1543 10.7911 16.0286 10.8564 15.9307 10.9037C15.8311 10.9511 15.6743 11.018 15.5796 11.054C15.485 11.0899 15.3233 11.1454 15.2205 11.178C15.1176 11.2107 14.9119 11.2662 14.7633 11.3005C14.6147 11.3364 14.4123 11.3805 14.3143 11.3984C14.2147 11.4164 14.0319 11.4474 13.9062 11.4654C13.7805 11.4833 13.5633 11.5078 13.4245 11.5225C13.2858 11.5356 13.0458 11.5535 12.8939 11.5633C12.7405 11.5731 12.4254 11.5797 12.1919 11.5797C11.9584 11.5797 11.6417 11.5731 11.4898 11.5633C11.3364 11.5535 11.098 11.5356 10.9592 11.5225C10.8205 11.5095 10.6866 11.4948 10.6605 11.4899L10.6164 11.4817L10.6082 13.0148C10.6833 13.0278 10.8123 13.0425 10.9429 13.0572C11.0735 13.0703 11.2939 13.0899 11.4327 13.0997C11.5715 13.1095 11.9176 13.116 12.2001 13.116C12.4825 13.116 12.8286 13.1078 12.9674 13.098C13.1062 13.0882 13.3494 13.067 13.5062 13.0491C13.6629 13.0311 13.9013 12.9984 14.0368 12.9756C14.1707 12.9527 14.3813 12.9119 14.5021 12.8842C14.6229 12.8564 14.8221 12.8042 14.9429 12.7682C15.0637 12.734 15.2482 12.6703 15.3511 12.6295C15.4539 12.5886 15.5976 12.5266 15.6694 12.4907C15.7413 12.4548 15.8588 12.3862 15.9307 12.3389C16.0025 12.2915 16.1054 12.2066 16.1592 12.1495C16.2147 12.0907 16.2703 12.0123 16.2866 11.9715C16.3127 11.9062 16.3143 11.836 16.3111 11.3005L16.3062 10.7013L16.2082 10.7601ZM1.71842 12.9478C1.73638 12.9854 1.79026 13.0589 1.83597 13.1095C1.88332 13.1584 1.98128 13.2401 2.05311 13.2874C2.12495 13.3348 2.27515 13.418 2.38781 13.4719C2.50046 13.5258 2.66862 13.5976 2.76332 13.6303C2.85801 13.6646 3.01964 13.7168 3.1225 13.7462C3.22536 13.7772 3.42781 13.8262 3.57148 13.8572C3.71515 13.8882 3.92413 13.9291 4.03679 13.947C4.14944 13.965 4.37311 13.9944 4.53475 14.0123C4.69638 14.0303 4.97556 14.0531 5.15515 14.0646C5.3576 14.076 5.6874 14.0793 6.02046 14.0744C6.31597 14.0678 6.68005 14.0531 6.82862 14.0384C6.9772 14.0254 7.2074 13.9976 7.34291 13.9797C7.47679 13.9617 7.6874 13.9274 7.80822 13.9062C7.92903 13.8833 8.14618 13.8344 8.28985 13.7984C8.43352 13.7609 8.6572 13.6956 8.78781 13.6515C8.91842 13.6074 9.1274 13.5209 9.25311 13.4589C9.37883 13.3984 9.54046 13.3038 9.6123 13.2515C9.68413 13.1976 9.77066 13.1209 9.80495 13.0817C9.8376 13.0425 9.87842 12.9837 9.89475 12.9527C9.91924 12.9021 9.9225 12.8237 9.92577 12.2784C9.92903 11.9389 9.92577 11.6629 9.9176 11.6629C9.91107 11.6629 9.86536 11.6874 9.81638 11.7184C9.7674 11.7478 9.67107 11.8001 9.60413 11.8344C9.5372 11.8686 9.38536 11.934 9.26944 11.9813C9.15189 12.027 8.9723 12.0923 8.86944 12.125C8.76658 12.156 8.59679 12.205 8.49393 12.2311C8.39107 12.2589 8.19515 12.3029 8.06128 12.3291C7.92577 12.3568 7.6874 12.3976 7.53066 12.4205C7.37393 12.4417 7.12413 12.4727 6.97556 12.4858C6.82699 12.5005 6.52658 12.5184 6.30618 12.5299C6.08413 12.5397 5.74618 12.5429 5.54699 12.5364C5.34944 12.5315 5.07679 12.5184 4.94291 12.5103C4.8074 12.5005 4.56577 12.4793 4.40413 12.4613C4.2425 12.4433 3.98128 12.4058 3.82454 12.3797C3.66781 12.3519 3.42781 12.3046 3.29393 12.2735C3.15842 12.2425 2.93801 12.1838 2.80413 12.1429C2.66862 12.1005 2.47434 12.0335 2.37148 11.9927C2.26862 11.9519 2.10209 11.8784 2.00413 11.8295C1.90454 11.7805 1.79679 11.7217 1.7625 11.7005C1.72985 11.6793 1.69883 11.6629 1.69393 11.6629C1.68903 11.6629 1.68577 11.9356 1.68577 12.2703C1.68577 12.8417 1.68903 12.8825 1.71842 12.9478ZM1.68577 14.4989C1.68577 15.0719 1.68903 15.1193 1.71679 15.1813C1.73475 15.2172 1.78373 15.2858 1.82781 15.3331C1.87026 15.3821 1.97148 15.4654 2.05311 15.5193C2.13311 15.5731 2.2572 15.645 2.32577 15.6809C2.39597 15.7152 2.51026 15.7674 2.57883 15.7952C2.64903 15.8229 2.77964 15.8703 2.86944 15.9013C2.95924 15.9323 3.1274 15.9829 3.24495 16.0123C3.36087 16.0433 3.56332 16.0907 3.69393 16.1168C3.82454 16.1446 4.06291 16.1854 4.22454 16.2066C4.38617 16.2295 4.66209 16.2605 4.83679 16.2768C5.07679 16.2997 5.31352 16.3062 5.80822 16.3062C6.30291 16.3062 6.53801 16.2997 6.77964 16.2768C6.95434 16.2605 7.23026 16.2295 7.39189 16.2066C7.55352 16.1838 7.78862 16.1446 7.91434 16.1201C8.04005 16.094 8.21964 16.0531 8.31434 16.0303C8.40903 16.0058 8.56577 15.9601 8.66536 15.9291C8.76332 15.8964 8.91842 15.8409 9.00822 15.8066C9.09801 15.7707 9.24169 15.7054 9.32658 15.6597C9.41148 15.6156 9.54046 15.5372 9.6123 15.4866C9.6825 15.4344 9.7772 15.3495 9.81964 15.2956C9.86373 15.2417 9.90617 15.1715 9.91434 15.1405C9.92413 15.1078 9.93067 14.8172 9.93067 14.4825V13.8833C9.72169 14.0091 9.56985 14.0874 9.4572 14.138C9.34454 14.1886 9.13556 14.2686 8.99189 14.3176C8.84822 14.3666 8.59842 14.4384 8.43679 14.4793C8.27516 14.5184 8.04332 14.5691 7.9225 14.5919C7.80169 14.6131 7.58781 14.6474 7.44903 14.6654C7.31026 14.685 7.07515 14.7111 6.92658 14.7242C6.77801 14.7372 6.46291 14.7552 6.22454 14.7633C5.97475 14.7715 5.61556 14.7715 5.37556 14.7633C5.14699 14.7552 4.87107 14.7405 4.76332 14.7323C4.65556 14.7225 4.4972 14.7062 4.4123 14.698C4.3274 14.6882 4.13638 14.6621 3.98781 14.6393C3.83924 14.6164 3.63026 14.5805 3.5225 14.5593C3.41475 14.5364 3.21556 14.4907 3.08169 14.4548C2.94617 14.4189 2.74046 14.3584 2.62454 14.3193C2.50699 14.2784 2.34536 14.2197 2.26536 14.1854C2.18373 14.1511 2.05964 14.094 1.98781 14.058C1.91597 14.0221 1.81801 13.9682 1.77066 13.9372L1.68413 13.8833L1.68577 14.4989Z" stroke="#078C61" stroke-width="0.6" mask="url(#path-1-outside-1_105_6428)"/>
</svg>