<svg width="22" height="16" viewBox="0 0 22 16" fill="none" xmlns="http://www.w3.org/2000/svg">
<path d="M19.5557 0H2.4445C1.7964 0.000719086 1.17504 0.260296 0.716766 0.721779C0.258488 1.18326 0.000714091 1.80896 0 2.4616V13.5387C0.000714206 14.1913 0.258496 14.8169 0.716781 15.2784C1.17507 15.7398 1.79642 15.9993 2.4445 16H19.5557C20.2038 15.9994 20.8252 15.7399 21.2834 15.2784C21.7417 14.817 21.9994 14.1913 22 13.5387V2.4616C21.9994 1.80898 21.7416 1.18328 21.2834 0.721794C20.8252 0.260304 20.2038 0.000719202 19.5557 0ZM20.7776 13.5387C20.7772 13.8649 20.6484 14.1778 20.4193 14.4085C20.1902 14.6393 19.8795 14.7691 19.5555 14.7696H2.4445C2.12049 14.769 1.8099 14.6392 1.58081 14.4085C1.35172 14.1777 1.22283 13.8649 1.22237 13.5387V2.46184C1.22276 2.13555 1.35164 1.82272 1.58074 1.59197C1.80984 1.36122 2.12047 1.23138 2.4445 1.23092H19.5557C19.8797 1.23138 20.1903 1.36119 20.4193 1.5919C20.6484 1.8226 20.7772 2.13536 20.7776 2.4616V13.5387Z" fill="#078C61"/>
<path d="M17.5724 8.49477C18.2664 7.92111 18.716 7.07731 18.716 6.12489C18.716 5.29612 18.3776 4.50129 17.7753 3.91526C17.173 3.32923 16.3561 3 15.5043 3C14.6526 3 13.8357 3.32923 13.2334 3.91526C12.6311 4.50129 12.2927 5.29612 12.2927 6.12489C12.2927 7.07806 12.742 7.92111 13.436 8.49477C11.9952 9.22495 11.0078 10.6888 11.0078 12.3749C11.0078 12.5407 11.0755 12.6997 11.196 12.8169C11.3165 12.9341 11.4799 13 11.6502 13C11.8206 13 11.984 12.9341 12.1045 12.8169C12.225 12.6997 12.2927 12.5407 12.2927 12.3749C12.2889 11.9622 12.3691 11.5528 12.5289 11.1704C12.6886 10.788 12.9245 10.4402 13.2231 10.147C13.5218 9.85387 13.8771 9.62116 14.2687 9.46236C14.6602 9.30355 15.0803 9.22178 15.5045 9.22178C15.9287 9.22178 16.3487 9.30355 16.7403 9.46236C17.1318 9.62116 17.4872 9.85387 17.7858 10.147C18.0844 10.4402 18.3204 10.788 18.4801 11.1704C18.6398 11.5528 18.7201 11.9622 18.7163 12.3749C18.7163 12.5407 18.7839 12.6997 18.9044 12.8169C19.0249 12.9341 19.1883 13 19.3587 13C19.5291 13 19.6925 12.9341 19.813 12.8169C19.9334 12.6997 20.0011 12.5407 20.0011 12.3749C20.0011 10.6888 19.0127 9.22495 17.5724 8.49477ZM13.5765 6.12489C13.5765 5.75404 13.6895 5.39152 13.9013 5.08318C14.1131 4.77483 14.414 4.53451 14.7662 4.39261C15.1183 4.2507 15.5058 4.21358 15.8796 4.28595C16.2534 4.35832 16.5968 4.53692 16.8663 4.79916C17.1358 5.06141 17.3193 5.39553 17.3936 5.75925C17.4679 6.12298 17.4297 6.49999 17.2838 6.84259C17.138 7.18519 16.8909 7.47801 16.574 7.684C16.2571 7.89 15.8845 7.99992 15.5033 7.99987C15.2503 7.99987 14.9997 7.95137 14.7659 7.85714C14.5321 7.76292 14.3197 7.6248 14.1408 7.45069C13.9618 7.27658 13.8199 7.06988 13.7231 6.8424C13.6263 6.61492 13.5765 6.3711 13.5765 6.12489Z" fill="#078C61"/>
<path fill-rule="evenodd" clip-rule="evenodd" d="M6.97184 5.19912L7.50931 6.27287C7.56199 6.37828 7.66367 6.45137 7.78157 6.46829L8.98392 6.64136C9.28099 6.68425 9.3992 7.04428 9.18421 7.25057L8.31476 8.08601C8.22931 8.16817 8.19042 8.28626 8.21063 8.40225L8.41582 9.58171C8.46635 9.87348 8.15581 10.0961 7.89029 9.95805L6.81565 9.40079C6.7103 9.34612 6.58412 9.34612 6.47847 9.40079L5.40382 9.95805C5.1383 10.0961 4.82776 9.87348 4.8786 9.58171L5.08348 8.40225C5.1037 8.28626 5.0648 8.16817 4.97936 8.08601L4.10991 7.25057C3.89492 7.04428 4.01313 6.68425 4.3102 6.64136L5.51254 6.46829C5.63045 6.45137 5.73243 6.37828 5.78511 6.27287L6.32228 5.19912C6.45519 4.93363 6.83893 4.93363 6.97184 5.19912Z" stroke="#078C61" stroke-linecap="round" stroke-linejoin="round"/>
</svg>
