<svg width="24" height="24" viewBox="0 0 24 24" fill="none" xmlns="http://www.w3.org/2000/svg">
<path d="M3 3.75L5.08 4.11L6.043 15.583C6.12 16.52 6.903 17.239 7.843 17.236H18.752C19.649 17.238 20.41 16.578 20.537 15.69L21.486 9.132C21.592 8.399 21.083 7.719 20.351 7.613C20.287 7.604 17.75 7.599 17.75 7.599M13.25 13.5001L9.5 10.613M13.25 13.5001L16.75 10.613M13.25 13.5001C13.25 12 13.25 5.5 13.25 4.5C14.75 4.5 15.9303 4.5 17.5 4.5" stroke="#078C61" stroke-width="1.5" stroke-linecap="round" stroke-linejoin="round"/>
<path fill-rule="evenodd" clip-rule="evenodd" d="M7.40338 20.7026C7.70438 20.7026 7.94738 20.9466 7.94738 21.2466C7.94738 21.5476 7.70438 21.7916 7.40338 21.7916C7.10238 21.7916 6.85938 21.5476 6.85938 21.2466C6.85938 20.9466 7.10238 20.7026 7.40338 20.7026Z" fill="#078C61" stroke="#078C61" stroke-width="1.5" stroke-linecap="round" stroke-linejoin="round"/>
<path fill-rule="evenodd" clip-rule="evenodd" d="M18.6846 20.7026C18.9856 20.7026 19.2296 20.9466 19.2296 21.2466C19.2296 21.5476 18.9856 21.7916 18.6846 21.7916C18.3836 21.7916 18.1406 21.5476 18.1406 21.2466C18.1406 20.9466 18.3836 20.7026 18.6846 20.7026Z" fill="#078C61" stroke="#078C61" stroke-width="1.5" stroke-linecap="round" stroke-linejoin="round"/>
</svg>
