<svg width="23" height="17" viewBox="0 0 23 17" fill="none" xmlns="http://www.w3.org/2000/svg">
<path d="M11.5 8.5V12.5" stroke="#078C61" stroke-width="1.5" stroke-linecap="round" stroke-linejoin="round"/>
<path d="M8.5 10.5L11.5 13L14.5 10.5" stroke="#078C61" stroke-width="1.5" stroke-linecap="round" stroke-linejoin="round"/>
<path d="M4.5 7H1V1H22V7H18.5" stroke="#078C61" stroke-width="1.5" stroke-linecap="round" stroke-linejoin="round"/>
<mask id="path-4-inside-1_210_1069" fill="white">
<path d="M4.5 5.5C4.5 4.94772 4.94772 4.5 5.5 4.5H17.5C18.0523 4.5 18.5 4.94772 18.5 5.5V14.5C18.5 15.6046 17.6046 16.5 16.5 16.5H6.5C5.39543 16.5 4.5 15.6046 4.5 14.5V5.5Z"/>
</mask>
<path d="M4.5 5.5C4.5 4.94772 4.94772 4.5 5.5 4.5H17.5C18.0523 4.5 18.5 4.94772 18.5 5.5V14.5C18.5 15.6046 17.6046 16.5 16.5 16.5H6.5C5.39543 16.5 4.5 15.6046 4.5 14.5V5.5Z" stroke="#078C61" stroke-width="3" stroke-linejoin="round" mask="url(#path-4-inside-1_210_1069)"/>
</svg>
