<svg width="66" height="66" viewBox="0 0 66 66" fill="none" xmlns="http://www.w3.org/2000/svg">
<circle cx="33" cy="33" r="33" fill="#B5B5B5"/>
<path fill-rule="evenodd" clip-rule="evenodd" d="M26.6413 24.625H33.8814C36.9089 24.625 39.0227 26.7113 39.0227 29.7011V38.2989C39.0227 41.2887 36.9089 43.375 33.8814 43.375H26.6413C23.6138 43.375 21.5 41.2887 21.5 38.2989V29.7011C21.5 26.7113 23.6138 24.625 26.6413 24.625ZM43.9475 27.5987C44.4962 27.3195 45.14 27.3487 45.6637 27.6787C46.1875 28.0074 46.5 28.5784 46.5 29.2028V38.798C46.5 39.4236 46.1875 39.9934 45.6637 40.3221C45.3775 40.501 45.0575 40.5924 44.735 40.5924C44.4662 40.5924 44.1975 40.5289 43.9462 40.4008L42.095 39.4668C41.4099 39.119 40.9849 38.4211 40.9849 37.6457V30.3538C40.9849 29.5772 41.4099 28.8792 42.095 28.534L43.9475 27.5987Z" fill="white"/>
</svg>
